<?xml version="1.0" encoding="UTF-8"?>
<svg id="Layer_2" data-name="Layer 2" xmlns="http://www.w3.org/2000/svg" width="123.38583" height="123.38582" xmlns:xlink="http://www.w3.org/1999/xlink" viewBox="0 0 123.38583 123.38582">
  <defs>
    <style>
      .cls-1 {
        fill: #ffcf44;
      }

      .cls-2 {
        fill: #fff;
      }

      .cls-3 {
        fill: #e8ae34;
      }

      .cls-4 {
        stroke: #fce6a4;
      }

      .cls-4, .cls-5 {
        stroke-miterlimit: 10;
      }

      .cls-4, .cls-5, .cls-6 {
        fill: none;
      }

      .cls-7 {
        opacity: .51;
      }

      .cls-5 {
        stroke: #fff;
      }

      .cls-8 {
        fill: #015453;
      }

      .cls-9 {
        clip-path: url(#clippath-1);
      }

      .cls-10 {
        fill: #5d3996;
      }

      .cls-11 {
        clip-path: url(#clippath);
      }

      .cls-12 {
        fill: #007d7c;
      }

      .cls-13 {
        fill: #0ca39f;
      }

      .cls-14 {
        fill: #fde6a4;
      }

      .cls-15 {
        fill: #a99031;
      }
    </style>
    <clipPath id="clippath">
      <circle class="cls-6" cx="61.69292" cy="61.69291" r="56.69291"/>
    </clipPath>
    <clipPath id="clippath-1">
      <circle class="cls-6" cx="61.69362" cy="40.69291" r="56.69291"/>
    </clipPath>
  </defs>
  <g>
    <circle class="cls-1" cx="61.69299" cy="61.69289" r="59.19269" transform="translate(-25.554 61.69296) rotate(-45)"/>
    <path class="cls-10" d="m61.69293,5c31.31061,0,56.6929,25.38228,56.6929,56.69292s-25.38229,56.6929-56.6929,56.6929S5,93.00356,5,61.69292,30.38229,5,61.69293,5m0-5C27.67535,0,0,27.67534,0,61.69292s27.67535,61.6929,61.69293,61.6929,61.6929-27.67532,61.6929-61.6929S95.71051,0,61.69293,0h0Z"/>
  </g>
  <g class="cls-7">
    <path class="cls-2" d="m46.37231,38.40004c-3.20605,0-5.21582-1.42529-6.32471-4.48535-1.12354-3.09912,1.31689-5.59912,2.33301-6.15918.3999-.2207,1.14209-.47803,1.91895-.47803.91406,0,2.10889.35059,2.61182,2.01953.25928.85986.21875,1.52734-.12061,1.98438-.40332.54297-1.09912.62402-1.47803.62402h0c-.11719,0-.18945-.0083-.18945-.0083-.09521-.01025-.16846-.08984-.1709-.18555s.06592-.17871.16016-.19434c.52393-.08594.88525-.2832,1.07422-.58691.25-.40039.13232-.88574.09033-1.02539-.12598-.41943-.66602-1.24316-1.39941-1.34229-.13672-.01807-.27832-.02734-.42334-.02734-1.09375,0-2.65234.55566-3.44482,2.12256-.85254,1.68701-.11523,4.59521,2.14893,5.96289.90674.54736,1.83203.81396,2.82764.81396,1.53027-.00049,3.35107-.63428,5.73047-1.99512,3.25537-1.86279,7.77344-7.40723,9.70264-9.7749.34033-.41748.60352-.74072.771-.93506.53223-.61719,2.44238-2.63037,4.71387-2.63037.42773,0,.84766.07227,1.24902.21436.74023.26172,1.18945.66357,1.33496,1.19434.25.9165-.51953,1.84912-.55176,1.88818-.03809.04443-.0918.06885-.14746.06885-.02637,0-.05273-.00537-.07812-.01709-.07812-.03467-.12402-.11768-.11133-.20264.11133-.76221-.01758-1.36328-.38379-1.78662-.33496-.38818-.87207-.61133-1.4707-.61133-.19141,0-.38086.02441-.54883.07031-1.375.37549-2.65527,1.69531-3.11426,3.20996-.3125,1.03125-.38867,2.60254,1.02539,4.22852.95605,1.1001,2.04688,1.65771,3.24121,1.65771,2.70898-.00049,5.11328-2.84863,5.13672-2.87744.03809-.0459.09277-.06934.14746-.06934.04297,0,.08691.01465.12207.04443.08203.06738.09277.18799.02539.26953-.06445.07812-.14453.18848-.24121.32129-.67383.92578-2.25098,3.09424-4.97461,3.09424-.52344,0-1.06934-.08008-1.62402-.23877-3.89941-1.11719-4.01465-4.63574-3.86377-6.18359-.12109.17773-.25928.38721-.41016.61572-.78662,1.19189-2.10254,3.18701-3.92432,5.12451-2.84668,3.02686-8.07959,6.2749-11.33301,6.28564h-.03662Z"/>
    <path class="cls-2" d="m66.90445,22.29088c.38998.00003.78708.06239,1.18536.20323,2.33463.82562.69879,2.77884.69879,2.77884.28415-1.93919-.9819-2.6172-2.04367-2.6172-.21265,0-.41724.02722-.5994.07695-2.44095.66644-5.05615,4.44447-2.18253,7.74948,1.10263,1.26813,2.27286,1.72313,3.38528,1.72313,2.83005,0,5.28397-2.94649,5.28397-2.94649-.52609.63753-2.06381,3.34602-5.06781,3.34602-.48486,0-1.00818-.07062-1.57135-.23189-4.90805-1.40543-3.61789-6.69585-3.61789-6.69585-.49673.42786-2.03555,3.39468-4.77307,6.30577-2.73752,2.9111-7.92914,6.21451-11.19348,6.2254-.01175.00005-.02307.00006-.03479.00006-3.24271,0-5.11621-1.51744-6.14609-4.35887-1.12332-3.09915,1.41101-5.46593,2.24561-5.92613.36575-.20166,1.0766-.45403,1.82626-.45399.961.00003,1.98572.41479,2.42831,1.88266.65784,2.18187-.8876,2.36183-1.41547,2.36183-.10428,0-.16885-.00702-.16885-.00702,1.52347-.25076,1.47095-1.34731,1.3172-1.85715-.15372-.50984-.76059-1.36972-1.55771-1.47701-.14465-.01947-.2948-.02934-.44879-.02934-1.28693.00003-2.83786.68965-3.61584,2.2282-.87109,1.72264-.15918,4.77562,2.22095,6.21324.93076.56218,1.88239.84155,2.92694.84155,1.62659,0,3.47821-.6777,5.82526-2.0204,3.85425-2.20494,9.39111-9.43626,10.52417-10.75122.93976-1.09064,2.67261-2.56393,4.56863-2.56381m.00003-.38356c-2.35239-.00015-4.31406,2.06427-4.85922,2.69699-.16852.19557-.43369.52081-.77563.94046-1.92239,2.35913-6.42432,7.88376-9.64844,9.72821-2.34909,1.34387-4.13959,1.96977-5.6348,1.96977-.96008,0-1.85263-.2572-2.72864-.78632-2.14206-1.29384-2.87543-4.13286-2.07697-5.71184.75305-1.48923,2.23413-2.01767,3.27359-2.01772.13641,0,.26944.00867.39761.02592.58893.07927,1.108.76434,1.24161,1.20758.03613.11972.13779.53607-.06943.86852-.15866.25455-.47589.42258-.94281.49944-.18878.03108-.32455.19661-.31995.38786.00464.19125.1507.34999.34073.37192,0,0,.08044.00929.21039.00929.41486,0,1.17862-.09119,1.63235-.70189.3775-.50813.4281-1.23293.15033-2.15424-.4191-1.38997-1.4119-2.15546-2.79556-2.1555-.81308-.00003-1.59174.27023-2.01147.50166-.78351.43205-3.677,2.92755-2.42099,6.39273,1.12476,3.10321,3.25311,4.61172,6.50668,4.61172,3.33868-.01109,8.63403-3.29037,11.50769-6.34625,1.83267-1.94888,3.15436-3.95218,3.94403-5.14912.00754-.01138.01505-.02278.02252-.03413-.02069,1.78433.5238,4.67261,4.0394,5.67931.57169.16371,1.13589.2467,1.67694.2467,2.82111,0,4.43927-2.22437,5.13025-3.17419.0936-.12865.17093-.23553.2334-.31125.13455-.16304.11172-.40413-.0509-.53915-.07159-.05942-.15842-.08841-.24475-.08841-.10983-.00002-.21887.04691-.29474.13777-.02347.02808-2.37579,2.80858-4.98941,2.80858-1.1362,0-2.17776-.53537-3.09583-1.59125-1.35675-1.56042-1.28564-3.0623-.98703-4.04745.43393-1.43172,1.68765-2.72719,2.98111-3.08032.15198-.0415.32431-.06343.49838-.06343.54346,0,1.0267.19852,1.32581.54465.32776.37927.44159.92883.33835,1.63339-.02487.1698.06604.33545.22266.40564.05051.02263.10388.03355.15674.03355.11096,0,.21954-.04819.29419-.1373.03549-.0424.86649-1.05005.58978-2.06216-.16266-.59506-.6521-1.04071-1.45474-1.32457-.42245-.14938-.86429-.22514-1.31323-.22517h0Z"/>
  </g>
  <g class="cls-7">
    <path class="cls-2" d="m46.51245,35.19594c-.15771,0-.31689-.00977-.47656-.0293-1.11914-.13916-1.92725-.53906-2.40137-1.18896-.56689-.77637-.53564-1.74854-.40869-2.4292.06738-.57568.29688-1.00879.30664-1.02734.03467-.06396.10059-.10107.16895-.10107.02832,0,.05713.00635.08447.01953.09229.04541.13281.15625.09082.25049-.00195.00391-.1709.38818-.271.91553-.08203.73779.18457,1.31934.79297,1.72852.49707.33447,1.04639.50391,1.63379.50391.96826,0,2.05957-.45117,3.24365-1.34033,1.46191-1.09814,3.17334-3.78711,4.68359-6.15967l.61621-.96484c1.771-2.75244,4.60254-6.45215,8.03516-8.44434,1.52344-.88379,3.01367-1.33154,4.42969-1.33154,1.55566,0,3.04004.53662,4.41113,1.59521,2.23926,1.72998,2.91406,5.03857,2.41309,7.27393-.44434,1.98389-2.78613,4.86523-5.44531,4.86523-.56152,0-1.10645-.13281-1.61914-.39453-.90332-.46045-1.21094-1.57031-1.11523-2.46582.07617-.71094.39843-1.2251.8418-1.34277.01562-.00391.03223-.00635.04883-.00635.05469,0,.10742.02344.14453.06543.04785.05469.06055.13184.0332.19922-.35742.86963-.36328,1.57031-.01953,2.0835.36328.54199,1.14746.86572,2.09766.86523.13184,0,.26367-.00635.39258-.01855,1.57422-.15039,3.22754-2.06738,3.71973-3.37549.47168-1.25391.35547-4.11182-1.39355-6.26514-1.06543-1.31152-2.5957-2.00488-4.4248-2.00488-.87207,0-1.792.15576-2.7334.46289-2.64111.8623-5.68262,3.87012-7.52539,6.46826-.36328.5127-.83447,1.35693-1.37939,2.33398-2.05713,3.68701-5.16602,9.25928-8.9751,9.25928Z"/>
    <path class="cls-2" d="m67.04126,15.78893c1.61575.00011,3.04605.59229,4.29303,1.55551,2.26581,1.75018,2.8027,5.02974,2.34329,7.08017-.44,1.96375-2.76471,4.71532-5.25803,4.71532-.50861,0-1.02438-.11456-1.53247-.37366-1.38623-.70692-1.24451-3.20525-.31079-3.45201-.95853,2.33534.67267,3.21338,2.2551,3.21338.13797,0,.27567-.00668.41116-.01965,1.68933-.16173,3.3793-2.16603,3.88116-3.49924.50183-1.33322.34473-4.27538-1.42435-6.45343-1.17111-1.44183-2.79901-2.0755-4.57382-2.0755-.90622,0-1.85095.16531-2.7923.47264-2.78494.90919-5.86642,4.06305-7.62268,6.53925-1.70227,2.40002-5.47635,11.51266-10.19809,11.51266-.14987,0-.30084-.0092-.45258-.02808-2.76245-.3436-2.86584-2.22159-2.64429-3.39931-.06857.60176.05539,1.364.87616,1.91621.55383.3726,1.13965.53644,1.74097.53644,1.10315,0,2.25781-.5519,3.35843-1.37871,1.70056-1.27748,3.73608-4.67216,5.34567-7.17366s4.47971-6.35638,7.97079-8.38231c1.56976-.91095,3.01352-1.30609,4.33362-1.30603m-23.34003,14.82327s-.17984.40257-.28561.96478c.06262-.54922.28561-.96478.28561-.96478m23.34003-15.20683v.38356-.38356c-1.45056-.00008-2.97339.45676-4.52615,1.35783-3.46555,2.01112-6.31808,5.73592-8.10083,8.50652-.19891.30914-.40433.63191-.61481.96265-1.42734,2.24274-3.2037,5.03391-4.63867,6.11189-1.14987.86382-2.2023,1.30182-3.12805,1.30182-.55621,0-1.05566-.15411-1.52686-.47112-.54254-.36502-.78162-.88342-.71066-1.54103.09558-.49905.25488-.86224.25647-.86588.08347-.18854.00305-.40962-.18219-.50015-.0542-.0265-.11169-.03909-.16837-.03909-.13693,0-.26892.07353-.33789.20203-.01044.01947-.25485.48041-.32709,1.08875-.18997,1.02451-.0368,1.91325.44318,2.57083.50687.69437,1.35913,1.12048,2.53323,1.26651.1676.02086.33438.03101.49991.03101,3.92163,0,7.06348-5.63167,9.14252-9.35828.54236-.97218,1.01077-1.81178,1.36844-2.31604,1.82443-2.57231,4.82904-5.54776,7.42886-6.39653.92212-.30106,1.82153-.4537,2.67325-.4537,1.7699,0,3.24857.66869,4.27609,1.93376,1.62753,2.00381,1.83737,4.81648,1.3631,6.07649-.47479,1.26134-2.05835,3.1089-3.55875,3.25253-.12344.01183-.2489.01791-.3746.01791-.88574,0-1.61011-.29164-1.93762-.78012-.3063-.4568-.29373-1.09741.03735-1.90407.0553-.13467.02954-.28905-.06644-.3985-.07385-.08424-.1795-.13071-.28842-.13071-.03262,0-.06552.00417-.09799.01274-.52988.14005-.89758.70358-.98361,1.50746-.10281.96092.23398,2.15518,1.21817,2.65707.54068.27573,1.1149.41553,1.70676.41553,2.75226,0,5.17413-2.97023,5.63226-5.01501.51385-2.29338-.18179-5.68997-2.48309-7.46759-1.40485-1.08516-2.9281-1.63542-4.5275-1.63551h0Zm-23.34003,15.59039h.005-.005Z"/>
  </g>
  <path class="cls-14" d="m17.59932,79.48843c-.57831-17.20482,9.01809-28.8111,13.8494-46.30775.33133-1.19991.87546-2.17375,1.58084-2.65876,1.68262-1.15695,3.93824,1.58269,5.95118,3.25708,1.27446,1.06012,2.57928,1.72135,3.87195,2.54704,4.20446,2.6856,8.31158,7.1325,12.52724,9.21052,3.40194,1.67691,11.98075,4.40792,16.64776,12.00973"/>
  <path class="cls-2" d="m24.81017,50.89807c1.48193-3.66867,4.1547-12.40799,6.46133-18.05208.43319-1.05997.87546-2.17375,1.58084-2.65876,1.68262-1.15695,4.11548,1.91738,6.12841,3.59178,1.27446,1.06012,2.57928,1.72135,3.87195,2.54704,1.58255,1.01085,3.1513,2.27123,4.71725,3.5609.03586.02953.15702.10288.19038.14529l.45093.37318c-1.72676.63056-3.90793-.74836-5.83434-2.44575-.38813-.34198-.68728.22156-.49516.92043.02485.09041.05.1807.07542.27085.2039.72294-.12735,1.29287-.52288.89263-.17134-.17338-.34228-.34896-.5128-.52671-.34053-.35498-.66452.01016-.58014.65186h0c.09365.71227-.30874,1.0525-.65955.55766l-1.39453-1.96713c-.17681-.24941,1.11851.03282.99881.24723-.07452.13349-.02843-.22342,0,0,.15613,1.22679-1.25453,2.51902-1.0984,3.74581.0937.73621-.3405,1.05969-.68758.50848-.61492-.97659-1.25108-1.90507-1.9046-2.77962-.18591-.24879-.40733-.27536-.54523-.08099-.60765.85649-1.07301,1.99463-1.56787,3.06456-.55888,1.20835-1.1845,2.36767-2.05041,2.88612-.75311.45092-1.72787.32687-2.56386-.57585-.21264-.22961-.4414-.15819-.54029.13855-.93035,2.79163-1.33091,4.20739-3.46344,4.93028l-.05422.05422Z"/>
  <path class="cls-2" d="m89.83068,52.50922c-.95202-.8156-.36999-3.80314-.95004-4.93415-1.30533-2.5452-3.77048-3.33718-4.99541-5.9243-.93989-1.98508-1.93496-3.9458-3.49968-5.53247-.40595-.41164-.88599-.77115-1.38369-1.06789-2.80907-1.67481-5.15642.64947-5.36048,2.79147-.15423,1.61897,1.27441,2.81776,2.73801,2.25398-.10015-.22264-.22451-.4364-.29412-.66672-.15089-.4992-.08936-.94915.36951-1.28485.45555-.33328.88026-.18101,1.27253.09561.99299.70029,1.3655,2.46793.27973,4.46241-.95263,1.41884-7.57522,5.27405-17.57956,8.09977l10.66582,11.91525,17.96183-6.05126.77555-4.15686Z"/>
  <path class="cls-2" d="m99.83065,56.01121c-.82402-.94474-.79895-2.30817-1.20929-3.5112-2.11704-1.51641-2.26507-5.35599-3.10286-8.09309-.64284-2.10017-1.34381-4.1842-2.66255-5.98054-.34213-.46603-.76512-.89121-1.21466-1.25682-2.53725-2.06355-5.19613-.10328-5.7079,1.98668-.3868,1.57963.8534,2.97248,2.38316,2.62635-.06689-.23478-.15902-.46428-.19458-.70225-.07709-.51577.04888-.95209.55149-1.21789.49897-.26387.89719-.05177,1.24532.27869.88125.83657.79882,2.29267-.13368,3.19413-1.79799,1.73817-3.65394,1.23341-5.2129-.3677l-3.49136,3.0189,17.38112,14.02569,1.36871-4.00095Z"/>
  <path class="cls-2" d="m100.00896,76.74144c-.5644-1.11937,3.85868,3.00211,3.75904,1.73494,2.89157-2.0241,4.48193-16.04819,3.14564-24.98734-.10274-2.19395-.26579-4.38665-1.09861-6.45361-.21607-.53624-.52059-1.05292-.86559-1.51847-1.9472-2.62759-5.00871-1.38682-6.02209.5113-.76593,1.43464.09071,3.09123,1.65854,3.13471-.00666-.24403-.03909-.4892-.01462-.72857.05303-.5188.28313-.91033.83591-1.04338.54877-.13209.88207.17202,1.13751.5784.64663,1.02875.20618,2.41908-.9205,3.06154-2.17243,1.23878-3.84556.29013-4.95948-1.64717l-18.94006,3.83285,23.39335,24.14546-1.10904-.62066Z"/>
  <g class="cls-7">
    <path class="cls-2" d="m50.17261,25.37465c-1.17773,0-2.11035-.65381-2.68555-1.20264-.52246-.49902-.95312-1.41602-.73682-2.33936.14697-.62646.64551-1.47412,2.18799-1.9541.34326-.10693.65088-.16113.91406-.16113.41699,0,.73486.1333.94482.39648.42773.53613.23486,1.41064.22656,1.44775-.01221.0542-.06055.09229-.11572.09229-.00244,0-.00537,0-.0083-.00049-.05811-.00391-.10498-.0498-.10986-.10791-.06152-.71777-.45166-1.16406-1.01807-1.16406-.47314,0-1.00879.31396-1.46924.86084-.42627.50635-.59424.99902-.49951,1.46436.10498.51416.54688,1.00244,1.21191,1.33887.3667.18604.74805.27979,1.13379.27979,1.25488,0,2.48633-.96875,3.65967-2.87891,2.07129-3.37256,4.54688-3.84766,4.65088-3.86621.00732-.00146.01416-.00195.021-.00195.05029,0,.09619.03223.1123.08105.01904.05615-.00635.11719-.05908.14355-2.02197,1.01709-2.9707,2.55566-3.88818,4.04297-.66064,1.0708-1.28418,2.08203-2.25879,2.76123-.73047.50928-1.4751.76758-2.21387.76758h0Z"/>
    <path class="cls-2" d="m58.48004,17.69688h.005m-.005,0c-3.54352,1.78285-3.89429,5.23232-6.16135,6.81316-.7829.54593-1.50552.74623-2.14587.74623-1.21393,0-2.13205-.72-2.6037-1.17021-1.00662-.96094-1.41382-3.21729,1.40439-4.09439.34988-.10889.63937-.15559.87857-.15559,1.44281,0,1.05603,1.69917,1.05603,1.69917-.07025-.81839-.53522-1.2724-1.13654-1.2724-.47717,0-1.04031.28615-1.55978.90318-1.17407,1.39461-.26526,2.47177.74918,2.98537.31863.16132.72101.29259,1.18756.29259,1.01883,0,2.34256-.62669,3.76077-2.93535,2.06763-3.36581,4.57074-3.81175,4.57074-3.81175m.00015-.2372c-.00543,0-.01086.00018-.01633.00056-.01071.00072-.02121.00214-.03146.00423-.17249.03232-2.65598.55161-4.72519,3.92003-1.15042,1.87274-2.34775,2.8223-3.55869,2.8223-.367,0-.7305-.08983-1.08041-.267-.63254-.32024-1.0513-.7784-1.1489-1.25696-.08725-.42787.0722-.88681.474-1.36406.43808-.52034.94046-.81877,1.37836-.81877.50696,0,.84351.39459.90021,1.05551.01001.11646.10336.20827.21994.21634.00555.00038.01108.00056.01654.00056.10986,0,.20639-.07599.23111-.18454.00891-.03925.21347-.96786-.24951-1.54808-.23346-.29257-.58261-.4409-1.03778-.4409-.27518,0-.59448.05595-.94907.16631-1.59573.49664-2.11414,1.38348-2.26801,2.04002-.22717.96922.22321,1.93008.77032,2.45238.59064.56378,1.5502,1.23584,2.76749,1.23584.76324,0,1.53085-.26541,2.28152-.78886.99481-.69368,1.62479-1.71504,2.29178-2.79639.9075-1.47125,1.84598-2.9926,3.83121-3.99475.0834-.03705.1424-.12009.1424-.21657,0-.131-.1037-.23718-.23468-.23718h-.0018c-.00101-.00002-.00204-.00002-.00305-.00002h0Zm-.00015.47438h.005-.005Z"/>
  </g>
  <circle class="cls-6" cx="61.69292" cy="40.35466" r="51.99525"/>
  <g class="cls-11">
    <path class="cls-3" d="m61.69362,155.72302c28.51351,0,51.62828-22.70806,51.62828-50.71986s-23.11477-50.71986-51.62828-50.71986S10.06534,76.99135,10.06534,105.00316s23.11477,50.71986,51.62828,50.71986"/>
  </g>
  <g>
    <path class="cls-15" d="m23.62342,61.71735c-.42725,4.04091.15889,7.88094,1.46363,11.72921.04156.12257.08657.24918.17716.34161.34901.35611,11.75498,15.98538,11.96162,15.53159.35269-.77451-10.43669-17.71882-10.44779-18.56978-.02177-1.66875-.60891-3.41711-.8562-5.06757"/>
    <path class="cls-3" d="m21.12342,61.71735c-.21329,2.21472-.13697,4.39961.17162,6.60145.29321,2.09207.64517,4.70811,1.72192,6.56037.16796.28894.3857.53574.58308.80366-.45768-.62127-.22856-.29593.03421.05291.42291.56142.84169,1.12598,1.26124,1.68992,2.67736,3.59882,5.34364,7.20677,8.09135,10.75246.74447.96068,1.46553,2.04697,2.3696,2.86925,1.38419,1.25895,3.74468.88377,4.28333-1.07425.25297-.91955-.06792-1.72767-.43828-2.54713-1.61436-3.57199-3.8785-6.91256-5.8886-10.26796-1.1819-1.9729-2.37984-3.93853-3.51103-5.94119-.17527-.3103-.35112-.62082-.51551-.93708-.23103-.44444-.22714-.63801-.05227-.03354-.12602-.43562.03021,1.03661.03561.29441.00463-.63669-.12314-1.30459-.2234-1.93144-.19285-1.20575-.515-2.38634-.71376-3.59136-.21991-1.3332-1.87183-2.07683-3.0753-1.7461-1.41529.38894-1.96665,1.73819-1.7461,3.0753.14009.84928.33731,1.68468.51267,2.52693.17407.83607.1251,1.74982.346,2.56502.12403.4577.35711.89508.57434,1.31688.67163,1.30414,1.44723,2.55949,2.1958,3.82008,2.0955,3.52879,4.25131,7.024,6.27462,10.59514.39231.69242.78325,1.3872,1.14243,2.09757.09608.19002.37627.99241.25374.50643-.11968-.4747-.0489-.13197-.02266-.02125.04273.18035-.01189-.96331.02705-1.09864l.64293-1.10317-.00774.00813,1.76777-.73223c.35513-.03388,1.55165.3835,1.62292.63956-.01348-.04843-.12513-.11793-.15806-.15994-.14276-.18215-.31047-.34968-.45969-.52702-.4393-.52209-.86027-1.05992-1.28048-1.59739-.14059-.17982-.28062-.36009-.42042-.54052.27015.34866-.01146-.01519-.12081-.1578-.32065-.4182-.64053-.83699-.9593-1.25662-.66478-.87512-1.32582-1.75308-1.98517-2.63229-2.03446-2.71288-4.01317-5.47202-6.09172-8.15141-.00189-.00244-.25782-.28578-.2955-.3798-.00497-.0124-.02097-.01975-.02652-.03178.23775.51548.23484.22183.16621-.13891-.21312-1.12016-.62343-2.21012-.83889-3.33726-.43131-2.2564-.46707-4.55671-.24724-6.83934.12961-1.34587-1.2418-2.5-2.5-2.5-1.45985,0-2.37002,1.15029-2.5,2.5h0Z"/>
  </g>
  <g>
    <path class="cls-15" d="m99.71679,61.6812c.03863,2.71949.35452,5.57041.70875,8.26701.29988,2.28289.69118,4.71674-.29079,6.79934-.11801.25027-.2611.4992-.48278.66478-.56233.42004-1.39962.13479-1.89325-.36418-1.00866-1.01957-1.0704-2.61408-1.06975-4.04828.00098-2.17225.28889-4.2398.28987-6.41204.00011-.25397.40843-.94846.65384-1.01386"/>
    <path class="cls-3" d="m97.21679,61.6812c.04402,2.47562.28766,4.94009.5965,7.39528.13721,1.09074.30778,2.17957.39577,3.27585.04272.53219.06546,1.0675.04553,1.60133-.00168.04488-.06219.80069-.00745.3806-.03914.30037-.11323.59937-.19891.88945-.03519.12587-.07562.25008-.12128.37263.06505-.1415.06575-.14734.0021-.01751-.08912.15495-.05328.13068.10751-.07281.2704-.27886.58589-.39135.94649-.33747.20826-.05985.3942-.02684.55782.09901-.21508-.13118-.2488-.14709-.10113-.04774.08616.04278.14459.11157.1753.20638-.08954-.12637-.16937-.25859-.2395-.39668.19604.37185-.03503-.15193-.06751-.28156-.0264-.10535-.11328-.77652-.06614-.28769-.04678-.48507-.05359-.9734-.05291-1.4604.00172-1.22249.09536-2.44126.17568-3.66036.04008-.60839.07811-1.21707.09788-1.82652.00688-.20513.01165-.41031.01428-.61553-.02778.13564-.07216.26534-.13314.38909-.09398.20251-.08439.19766.02878-.01457-.12547.18754-.28479.34109-.47798.46066,1.15875-.61056,1.60629-2.32012.89688-3.42047-.76015-1.17906-2.18104-1.54995-3.42047-.89688-1.26688.66753-1.83951,2.13763-1.89407,3.48217-.05155,1.27039-.12428,2.53642-.203,3.80558-.14584,2.35139-.37349,5.19764,1.02387,7.24677.85603,1.25531,2.13902,2.11708,3.68888,2.16144,1.71801.04918,2.91896-1.17031,3.54016-2.64234.98317-2.32977.75617-4.81508.43373-7.25666-.37392-2.83144-.69286-5.67295-.74367-8.53106-.02323-1.30677-1.13326-2.56122-2.5-2.5-1.3346.05978-2.52491,1.09907-2.5,2.5h0Z"/>
  </g>
  <g>
    <g>
      <path class="cls-8" d="m91.10243,58.14737c.37081,2.24985.00149,4.21196-.90772,6.09375-.8568,1.77331-2.15484,3.24058-3.48217,4.64807-1.71211,1.81551-2.17717,3.77983-1.59318,6.21469.89577,3.73485,1.57301,7.52232,2.3281,11.29044.09468.4725-1.13315.81577-1.10115,1.29893.04584.69194,1.14532,1.45994.42473,1.74697-.68542.27302-1.35339.21152-1.94295-.26744-.6143-.49905-1.02081-1.1236-1.21966-1.90526-.35096-1.37955-.8293-2.71452-1.70904-3.85995-.77677-1.01135-1.63115-.90533-2.10761.28866-.97828,2.45152-.97773,2.39545-2.44433,6.11083-.41572,1.05315-1.37058,3.61142-1.76443,4.67056-.55924,1.50395-1.42235,2.07523-2.59553,1.85766-1.0841-.20105-1.85922-1.05795-1.62908-2.62055.61151-4.1521,1.10037-6.20534,1.58924-9.77407.48887-2.83543.5695-4.63508.70394-7.05673.05253-.94625-.46504-1.41176-1.28906-1.6461-1.45391-.41348-2.94854-.48729-4.44712-.49621-1.10124-.00656-2.17915-.16439-3.23197-.46896-.74346-.21506-1.44599-.5299-1.97743-1.12968-.41392-.46715-.81255-.99104-.5833-1.62953.23083-.64287.88999-.43947,1.38496-.44947,6.38063-.129,12.54353-1.27306,18.3893-3.90909,2.77026-1.2492,5.15261-3.0307,7.17789-5.2912.63062-.70386,1.04693-1.52863,1.34413-2.42494.13093-.39484.15326-.86344.68344-1.29138Z"/>
      <path class="cls-8" d="m62.41467,42.8789c3.51848-.06537,7.32956.34419,11.09351,1.19294.37819.08528.89307.06517.9918.54513.0933.45352-.36498.68178-.63812.96231-.40652.41749-.9089.67286-1.48878.75628-.60016.08635-1.20045.17606-1.80336.2384-2.921.30204-3.4026.9449-3.02608,3.80851.53749,4.08782,1.02471,8.18232,1.51963,12.27563.19344,1.5999-.37045,2.84819-1.33897,3.05837-1.05098.22807-2.10491-.65949-2.58529-2.25294-.60767-2.01564-1.17557-4.04423-2.21053-5.89673-.29184-.52236-.55715-1.18462-1.26512-1.16654-.65395.0167-.85721.67271-1.12655,1.15811-.9902,1.78458-1.50175,3.74974-2.09854,5.68065-.24324.78699-.53698,1.53209-1.20998,2.05465-1.13037.87771-2.30921.52009-2.78215-.8335-.19162-.54845-.22168-1.11257-.13436-1.67801.62952-4.0762,1.15244-8.16582,1.56568-12.26952.02431-.24144.05257-.48288.06504-.72504.11162-2.16885-.28277-2.68745-2.44867-3.10749-.79247-.15369-1.60395-.20678-2.40226-.33401-.39504-.06296-.80878-.13033-1.16267-.30179-.55473-.26876-1.13792-.67652-1.06851-1.34223.06849-.65683.79492-.58936,1.28019-.68321,3.94007-.76195,7.91465-1.18658,12.2741-1.13997Z"/>
      <path class="cls-8" d="m38.94545,59.78617c-.02361,1.84066.58883,3.49091,1.46244,5.06904.12872.23253.41976.48306.16377.75418-.23939.25353-.54017.05507-.77584-.07991-.63108-.36145-1.26412-.72429-1.86513-1.13258-2.15346-1.46291-2.29115-1.87734-1.71159-4.42792.27745-1.22103.5045-2.45463.71334-3.68948.06999-.41387.25076-.96609-.26475-1.19381-.42691-.18858-.72394.24308-1.0176.50958-.59563.54054-1.04928,1.24805-1.80739,1.5953-.39883.18269-.84815.42124-1.26742.14028-.4067-.27253-.23804-.74912-.18299-1.12721.3359-2.30696,1.5302-4.13235,3.23347-5.66747,3.26895-2.94623,7.23317-4.52551,11.35849-5.7875.38209-.11689.82176-.27086,1.09465.1747.24985.40795.20613.87353-.02283,1.27717-.42997.75802-1.12411,1.2562-1.8213,1.74719-2.08207,1.46632-2.22415,1.90179-1.31239,4.22171,1.61178,4.10107,3.22965,8.1998,4.86477,12.29159.2923.73146.41417,1.46916.39596,2.24807-.01686.72112-.29437,1.24174-1.0005,1.49627-.89763.32356-1.65034.07738-2.34822-.52594-.58809-.50842-.39398-1.03186-.18121-1.63984,1.05694-3.02022-.48694-7.74461-3.105-9.60542-1.95445-1.38914-4.04792-.56477-4.48148,1.78285-.09475.51301-.08362,1.04558-.12125,1.56914Z"/>
      <path class="cls-8" d="m82.70243,65.77911c.73991-1.67537,1.50972-3.26873,1.77891-5.05291.18053-1.1966.09008-2.34555-.43217-3.43304-.83035-1.72905-2.45434-2.14065-4.03641-1.05532-2.80172,1.92204-4.44015,6.70162-3.25447,9.86277.45568,1.21489-.18012,1.64537-1.02878,2.03599-.96472.44404-1.92984.06919-2.32663-.86473-.35528-.83622-.19799-1.65528.12535-2.47284,1.75454-4.43635,3.46096-8.89226,5.27056-13.30593.47816-1.16623.34377-2.01139-.61093-2.77058-.53677-.42685-1.06335-.86723-1.61189-1.27835-.42252-.31666-.85701-.61591-1.12445-1.08638-.2903-.51068-.51992-1.11067-.17581-1.60566.35938-.51696.90156-.08192,1.32895.05534,3.74701,1.20339,7.41144,2.57051,10.49324,5.1473,1.81292,1.51584,3.27538,3.25103,3.78577,5.61799.12847.59578.4203,1.41231-.29657,1.75095-.67604.31934-1.31405-.17441-1.80728-.68787-.30737-.31999-.5592-.69365-.86937-1.01053-.33274-.33993-.69476-.84961-1.20707-.63417-.56237.23649-.34176.85658-.26184,1.3041.28412,1.59107.54651,3.19233.96058,4.75164.27199,1.02425-.01642,1.70954-.77341,2.33721-1.17917.97773-2.43959,1.8178-3.92627,2.39501Z"/>
      <path class="cls-8" d="m61.66879,33.18724c2.43114.00732,4.48294,2.04698,4.49298,4.46638.00981,2.36487-2.14616,4.50106-4.51979,4.47832-2.34866-.0225-4.34486-2.14665-4.35601-4.63519-.00993-2.21864,2.12343-4.31631,4.38282-4.30951Z"/>
      <path class="cls-8" d="m83.95705,59.97524c-.20358,2.03887-.81882,4.09603-2.35776,5.7806-.84536.92535-1.85498,1.75308-3.15838,1.2877-1.28181-.45767-1.51487-1.77716-1.50056-2.94485.03051-2.49011.73498-4.79216,2.57931-6.58396.77587-.75377,1.63546-1.55513,2.87007-1.12589,1.24777.43381,1.32393,1.61263,1.52241,2.68071.04378.23557.02622.48253.04492.9057Z"/>
      <path class="cls-8" d="m46.51137,63.80819c-.10955,1.35679-.27039,2.77362-1.66957,3.29047-1.38953.51327-2.41189-.49998-3.17867-1.49594-1.54658-2.00884-2.45355-4.26891-2.09356-6.87738.14464-1.04809.51765-2.03348,1.63784-2.34107,1.09727-.30131,1.99158.33782,2.67766,1.07883,1.65279,1.78511,2.45003,3.96151,2.6263,6.34509Z"/>
      <path class="cls-8" d="m43.34148,40.59966c-.06281,1.96913-.78358,3.69827-2.05931,5.16941-.72452.8355-1.69563,1.26312-2.82683.93437-1.08252-.3146-1.46575-1.24342-1.60517-2.22258-.33637-2.36237.30922-4.4684,1.85334-6.29335.79522-.93985,1.768-1.42117,2.99918-1.02663,1.24364.39853,1.47947,1.48664,1.63306,2.59314.03842.27681.00574.56349.00574.84563Z"/>
      <path class="cls-8" d="m86.62369,43.25588c-.0042.61376-.02799,1.21507-.2317,1.79742-.63731,1.82188-2.42605,2.34132-3.82285,1.0072-2.10151-2.00721-2.99479-4.46196-2.23522-7.34817.49864-1.89474,2.08211-2.41615,3.619-1.17738,1.80528,1.45509,2.57814,3.44395,2.67077,5.72094Z"/>
      <path class="cls-8" d="m34.03835,71.20515c.07331-.55436.18589-1.43569.30853-2.31561.03851-.27631.34852-3.0474.66811-3.13605.31665-.08784.18753,2.64659.38861,2.83608.8017.75549,1.43472,1.64296,2.01023,2.57578.61505.99691.63544,2.01754-.03747,2.96156-.47523.66669-1.21913.77127-1.96876.48602-1.13343-.4313-1.36277-1.39501-1.36907-2.46771-.00119-.20213-.00017-.40427-.00017-.94005Z"/>
      <path class="cls-8" d="m89.30065,71.47292c0,.37132-.00079.65457.00014.9378.00324.98668-.40564,1.7204-1.33249,2.11282-.54622.23126-1.11855.32425-1.59026-.13713-.7278-.71187-.98041-1.62721-.67075-2.56685.46764-1.419.94785-6.82469,1.95228-7.87329.41182-.42992,1.25442,4.31111,1.32292,4.72605.15789.95644.38315,1.90727.31816,2.8006Z"/>
    </g>
    <path class="cls-8" d="m32.31456,58.11955c-.37081,2.24985-.00149,4.21196.90772,6.09375.8568,1.77331,2.15484,3.24058,3.48217,4.64807,1.71211,1.81551,2.17717,3.77983,1.59318,6.21469-.89577,3.73485-1.57301,7.52232-2.3281,11.29044-.09468.4725,1.39673.95203,1.36472,1.43519-.04584.69194-1.4089,1.32368-.68831,1.61071.68542.27302,1.35339.21152,1.94295-.26744.6143-.49905,1.02081-1.1236,1.21966-1.90526.35096-1.37955.8293-3.71452,1.70904-4.85995.77677-1.01135,1.63115-.90533,2.10761.28866.97828,2.45152.97773,3.39545,2.44433,7.11083.41572,1.05315,1.37058,3.61142,1.76443,4.67056.55924,1.50395,1.42235,2.07523,2.59553,1.85766,1.0841-.20105,1.85922-1.05795,1.62908-2.62055-.61151-4.1521-1.10037-6.20534-1.58924-9.77407-.48887-2.83543-.5695-4.63508-.70394-7.05673-.05253-.94625.46504-1.41176,1.28906-1.6461,1.45391-.41348,2.94854-.48729,4.44712-.49621,1.10124-.00656,2.17915-.16439,3.23197-.46896.74346-.21506,1.44599-.5299,1.97743-1.12968.41392-.46715.81255-.99104.5833-1.62953-.23083-.64287-.88999-.43947-1.38496-.44947-6.38063-.129-12.54353-1.27306-18.3893-3.90909-2.77026-1.2492-5.15261-3.0307-7.17789-5.2912-.63062-.70386-1.04693-1.52863-1.34413-2.42494-.13093-.39484-.15326-.86344-.68344-1.29138Z"/>
  </g>
  <g>
    <g>
      <path class="cls-8" d="m73.448,96.73012c-.16797,0-.34277-.0166-.52441-.05078-1.1084-.20508-2.19238-1.10547-1.91211-3.01562.29492-2.00195.55859-3.49902.8125-4.94629.26953-1.53174.52441-2.97852.77734-4.82422.46191-2.68457.55859-4.44238.68066-6.66699l.01953-.36182c.03809-.68701-.27148-1.07275-1.03516-1.29004-1.44141-.41016-2.94434-.47412-4.35254-.48242-1.125-.00684-2.24414-.16943-3.32812-.48291-.60547-.17529-1.48633-.49365-2.1416-1.23389-.33887-.38232-.96875-1.09424-.65088-1.97998.25342-.7041.90186-.7041,1.11475-.7041.10352,0,.20801.00635.31152.0127.08594.00537.1709.01074.25195.01074,6.8291-.1377,12.7998-1.40625,18.28223-3.87842,2.35938-1.06445,4.49316-2.55762,6.34082-4.43848l.2373-.24121.24902.22803c.2334.21387.3623.31104.50292.41748.24611.18652.5254.39746,1.35255,1.18604l.18457.17627-.11035.22949c-.89648,1.85254-2.24219,3.35547-3.54297,4.73584-1.61133,1.70801-2.07617,3.52539-1.50781,5.89258.66211,2.76123,1.21387,5.59375,1.74707,8.3335.19238.99023.38574,1.98096.58301,2.96973.09375.46387-.33691.7666-.68164,1.01025-.13477.09521-.38574.27197-.41406.354.01367.1665.17773.42041.32324.64404.20996.32617.42871.66357.31934,1.00635-.06152.19141-.20801.33447-.43555.42529-.31152.12402-.62012.18652-.91895.18652-.49707,0-.95996-.17041-1.375-.50684-.68359-.55566-1.12109-1.23926-1.33789-2.09082-.28125-1.10547-.72266-2.52881-1.64746-3.7334-.27344-.35645-.55371-.55273-.7881-.55273-.26366,0-.5244.27637-.71679.7583-.36719.91846-.5957,1.48535-.81641,2.03027-.36816.90869-.71094,1.75635-1.62793,4.0791-.41504,1.05127-1.36816,3.60693-1.76172,4.66357-.52539,1.41406-1.35352,2.13086-2.46289,2.13086Z"/>
      <path class="cls-3" d="m88.34412,62.64262c.63773.58377.5293.33978,1.85059,1.59851-.85678,1.77332-2.15482,3.24057-3.48215,4.64807-1.71213,1.81549-2.17719,3.77982-1.5932,6.21469.89578,3.73483,1.57303,7.52231,2.32809,11.29044.0947.4725-1.13315.81577-1.10114,1.29892.04584.69193,1.14532,1.45993.42471,1.74698-.26682.10629-.53101.16187-.78894.16187-.40463,0-.79391-.13681-1.15399-.42932-.61429-.49905-1.02081-1.1236-1.21967-1.90524-.35095-1.37955-.82928-2.71454-1.70905-3.85995-.35364-.46042-.72339-.68927-1.06622-.6893-.41019-.00003-.78183.32755-1.04138.97797-.97827,2.45151-.97772,2.39545-2.44434,6.11084-.41571,1.05313-1.37057,3.61142-1.7644,4.67053-.48306,1.29907-1.19287,1.90231-2.13336,1.90231-.14835,0-.30237-.01501-.46219-.04465-1.08411-.20105-1.85922-1.05795-1.62909-2.62054.61151-4.1521,1.10037-6.20535,1.58926-9.77408.48886-2.83542.56949-4.63507.70392-7.05673.05255-.94623-.46503-1.41174-1.28906-1.64609-1.45389-.41348-2.94852-.4873-4.44711-.49622-1.10123-.00656-2.17914-.1644-3.23196-.46896-.74347-.21506-1.44598-.52991-1.97745-1.12967-.41391-.46716-.81253-.99106-.58328-1.62952.14362-.39999.45312-.47238.78564-.47238.18854,0,.38449.02325.56186.02325.0126,0,.02505-.00012.03745-.00037,6.38065-.129,12.54355-1.27304,18.38931-3.90909,2.44388-1.10202,4.58588-2.61832,6.44714-4.51227m-.0257-.97253l-.47357.48187c-1.8186,1.85056-3.91656,3.31906-6.23563,4.36481-5.43845,2.45236-11.36414,3.71085-18.11572,3.84735h-.00616c-.09399,0-.16974-.0051-.24661-.00983-.11038-.00677-.22247-.01321-.33237-.01321-.91614,0-1.29117.50891-1.44446.93582-.38831,1.08145.35901,1.92493.71817,2.33029.71622.80826,1.65958,1.15067,2.30685,1.33789,1.11511.3226,2.26654.48962,3.4223.49652,1.38394.00824,2.85782.0708,4.2598.46954.68979.19617.80685.47958.78165.93396l-.0209.37839c-.12164,2.20813-.21771,3.95224-.67392,6.59824-.25592,1.86505-.50995,3.31015-.77887,4.84009-.25461,1.44864-.51791,2.94656-.81311,4.95093-.2616,1.77631.59961,3.11511,2.19397,3.4108.20172.03741.40018.05637.58984.05637,1.26904,0,2.20755-.79346,2.78946-2.35831.21457-.57703,1.30777-3.51334,1.75943-4.6575.91086-2.3075,1.25504-3.15829,1.62009-4.06067.22253-.55017.45282-1.11945.82327-2.04776.16202-.40604.33353-.53738.3912-.53738.06635,0,.25858.08688.51111.41565.88583,1.15335,1.31281,2.53305,1.58578,3.60617.23248.91382.7226,1.6796,1.4567,2.27597.47864.38885,1.01541.58603,1.59537.58603.34296,0,.69556-.0712,1.04797-.21158.41092-.16367.57462-.44061.63956-.64413.15964-.50015-.12799-.94516-.3591-1.30273-.06155-.09525-.15927-.24646-.21759-.36383.0686-.05359.15512-.11456.21674-.15799.38303-.26999.96185-.67801.82413-1.36508-.19821-.98914-.39105-1.97968-.58389-2.97025-.53391-2.74234-1.086-5.57806-1.74985-8.34589-.53738-2.24051-.09888-3.95871,1.42178-5.57117,1.32034-1.40012,2.68616-2.92587,3.60315-4.82382l.22198-.45941-.36945-.35193c-.84174-.80191-1.129-1.01923-1.38245-1.211-.13422-.10156-.25635-.19382-.4783-.397l-.49835-.45621h0Z"/>
    </g>
    <g>
      <path class="cls-8" d="m79.1814,67.52699c-.2832,0-.57227-.05176-.8584-.15381-1.16992-.41748-1.75293-1.52051-1.73242-3.27832.03418-2.83496.9375-5.1333,2.68457-6.83105.61719-.59961,1.38574-1.34521,2.43652-1.34521.25977,0,.52637.04688.79297.13965,1.32031.45898,1.51953,1.61523,1.69629,2.63525l.05469.31201c.03223.17041.03711.3457.04102.57715.00195.10938.00391.23291.00977.37744-.25,2.54492-1.05078,4.50146-2.44824,6.03174-.65332.71484-1.54785,1.53516-2.67676,1.53516Z"/>
      <path class="cls-3" d="m81.71164,56.2686c.21338,0,.43863.03696.6781.12021,1.24774.43384,1.32391,1.61264,1.5224,2.68073.04376.23557.02621.48254.04492.9057-.20358,2.03888-.81882,4.09604-2.35776,5.78061-.67789.74203-1.46149,1.42133-2.41739,1.42133-.23618,0-.48276-.04144-.741-.13364-1.28183-.45767-1.51489-1.77716-1.50058-2.94485.03052-2.49011.73499-4.79214,2.57932-6.58395.62537-.60757,1.30527-1.24606,2.19199-1.24612m.00015-.69998h-.00003c-1.19363.00006-2.05264.83466-2.67987,1.44406-1.81638,1.76462-2.75558,4.14581-2.7915,7.07742-.02356,1.92319.6376,3.13867,1.96515,3.61267.32413.11572.65262.17441.97638.17441,1.26529,0,2.23273-.88138,2.9342-1.6492,1.45056-1.58783,2.28058-3.61038,2.53748-6.1832l.005-.05014-.00223-.05029c-.00626-.14136-.00818-.26199-.00995-.36877-.00372-.22723-.00699-.42349-.04605-.63388l-.05457-.30811c-.17355-1.00406-.41119-2.37921-1.92618-2.90594-.30353-.10553-.60895-.15903-.90784-.15903h0Z"/>
    </g>
    <g>
      <path class="cls-8" d="m44.10571,67.58656c-1.20264,0-2.08545-.94629-2.71973-1.77051-1.79639-2.33252-2.50391-4.66797-2.16309-7.13867.07471-.54248.30273-2.19385,1.8916-2.63037.21436-.05908.43164-.08887.646-.08887.8125,0,1.5918.41455,2.38135,1.26709,1.61084,1.73975,2.52539,3.9458,2.71875,6.55713-.10205,1.31104-.24121,3.03271-1.89697,3.64453-.28711.10596-.57568.15967-.85791.15967Z"/>
      <path class="cls-3" d="m41.76059,56.30797c.84842-.00006,1.5575.54276,2.12448,1.15512,1.65277,1.78513,2.45001,3.96152,2.62628,6.34509-.10953,1.35678-.27039,2.77362-1.66956,3.29047-.25775.09521-.50299.13791-.73618.13791-1.02396,0-1.81793-.82263-2.4425-1.63385-1.54657-2.00882-2.45355-4.26889-2.09354-6.87738.14462-1.0481.51764-2.03348,1.63782-2.34106.19046-.05231.37497-.07626.55319-.07629m.00015-.69998h-.00006c-.24545,0-.49399.03406-.73865.10126-1.81155.49744-2.0632,2.32114-2.14587,2.92041-.35443,2.56802.37573,4.98865,2.2323,7.40009.6835.88779,1.64185,1.90683,2.99716,1.90683.32382,0,.65311-.061.97873-.1813,1.8663-.68939,2.02182-2.61594,2.12473-3.89075l.00436-.05399-.004-.05399c-.1991-2.6922-1.14474-4.96964-2.81073-6.76904-.8595-.92828-1.72241-1.37952-2.63797-1.37952h0Z"/>
    </g>
    <g>
      <path class="cls-8" d="m49.96704,96.7018c-1.10742,0-1.93555-.7168-2.46143-2.12988-.39307-1.05859-1.34668-3.6123-1.76172-4.66406-.80664-2.04297-1.17383-3.25928-1.49805-4.33252-.27246-.90088-.50732-1.67871-.9458-2.77686-.19189-.48193-.45312-.7583-.71632-.7583-.23485,0-.51464.19629-.78808.55273-.71826.93506-1.17041,2.78467-1.5,4.13525l-.14795.59814c-.2168.85107-.6543,1.53516-1.33789,2.09033-.41504.33691-.87744.50732-1.375.50732h0c-.29834,0-.60742-.0625-.91846-.18652-.2915-.11621-.38818-.29932-.41797-.43213-.07422-.33447.1792-.60498.44727-.8916.19043-.20361.42773-.45654.43945-.63477-.0376-.06348-.34912-.27246-.53564-.39746-.45068-.30225-.91699-.61475-.82324-1.08398.19922-.99365.39307-1.98877.58691-2.98389.53271-2.73486,1.08301-5.56299,1.74414-8.31934.56787-2.36768.10303-4.18506-1.50732-5.89258-1.30225-1.38135-2.64844-2.88428-3.54248-4.73584l-.1084-.22412.17578-.17578c.43945-.43945.55322-.68164.64453-.87695.18604-.396.34326-.59326,1.15771-.95312l.22412-.09863.16943.17627c1.88477,1.95557,4.06934,3.50146,6.49365,4.59473,5.48193,2.47217,11.45264,3.74072,18.25195,3.87793h.0083c.10596,0,.18896-.00537.27295-.01025.10303-.00635.2085-.0127.31104-.0127.21338,0,.86182,0,1.11523.7041.31787.88574-.31201,1.59766-.65039,1.97998-.65674.74072-1.53711,1.05859-2.14258,1.23389-1.08301.31348-2.20264.47559-3.32715.48291-1.40869.0083-2.91113.07227-4.35352.48242-.76416.21729-1.07373.60303-1.03516,1.29004l.02002.36816c.12256,2.22266.21924,3.97852.6792,6.64844.25488,1.85986.50977,3.30762.77881,4.84082.25439,1.44678.51709,2.94238.81152,4.94238.28174,1.90918-.80273,2.80957-1.91113,3.01465-.18213.03418-.35742.05078-.52637.05078Z"/>
      <path class="cls-3" d="m34.91864,62.45631c1.89691,1.96799,4.08972,3.53815,6.60138,4.67075,5.84579,2.63605,12.00867,3.78009,18.38931,3.90909.01239.00024.02484.00037.03745.00037.17737,0,.37332-.02325.56186-.02325.33255,0,.64203.07239.78564.47238.22925.63849-.16937,1.16238-.58328,1.62952-.53146.59979-1.23398.91461-1.97745,1.12967-1.05283.30457-2.13074.4624-3.23196.46896-1.4986.00894-2.99319.08273-4.44711.49622-.82404.23434-1.34158.69986-1.28906,1.64612.13443,2.42163.21506,4.22128.70392,7.05673.48889,3.56873.97775,5.62195,1.58926,9.77405.23013,1.56259-.54498,2.41953-1.62909,2.62057-.15982.02963-.31381.04462-.46216.04462-.94046,0-1.65033-.60324-2.13336-1.90228-.39386-1.05914-1.34872-3.61743-1.76443-4.67056-1.46661-3.71539-1.46606-4.65933-2.44434-7.11084-.25955-.65042-.6312-.97797-1.04138-.97797-.34283,0-.71259.22888-1.06622.6893-.87973,1.14542-1.35809,3.48041-1.70905,4.85995-.19885.78165-.60535,1.40619-1.21967,1.90524-.36005.29251-.74933.42932-1.15399.42932-.25793,0-.52213-.0556-.78894-.16187-.72061-.28705.64246-.91876.68829-1.61072.03201-.48315-1.45941-.96268-1.36472-1.43518.7551-3.76813,1.43231-7.5556,2.32809-11.29044.58398-2.43488.11893-4.3992-1.59317-6.21469-1.32733-1.4075-2.6254-2.87476-3.48218-4.64807,1.12927-1.12927.34088-1.1586,1.69635-1.75699m.16464-.83786l-.44733.19748c-.86221.38065-1.09882.62546-1.33307,1.12424-.08411.17908-.17944.38202-.57556.77817l-.35168.35168.21637.44781c.91696,1.89789,2.28281,3.42368,3.60318,4.82379,1.52063,1.61246,1.95911,3.33069,1.42175,5.57117-.6637,2.76721-1.21567,5.60233-1.74948,8.34406-.19296.99118-.38593,1.9823-.58426,2.97211-.13998.69843.5025,1.12903.97162,1.44345.08499.05698.2041.13678.29858.20734-.07739.09622-.19049.21701-.26309.29459-.28876.30847-.64816.69238-.5332,1.20728.03937.17636.17352.49933.62982.68109.35245.14038.70505.21158,1.04797.21158.58002,0,1.11676-.19717,1.5954-.58603.73407-.59637,1.22418-1.36212,1.45667-2.27597.04709-.18515.09647-.38733.14877-.60147.32239-1.32022.76395-3.12833,1.43701-4.00467.25253-.3288.44473-.41568.51108-.41568.05768,0,.22922.13135.39124.53738.4328,1.08456.66589,1.85602.93585,2.74933.32617,1.0795.69592,2.30304,1.50751,4.3591.45117,1.14291,1.5448,4.08029,1.75946,4.65753.58188,1.56485,1.52039,2.35831,2.78949,2.35831.18967,0,.38809-.01895.58978-.05637,1.59439-.29568,2.45557-1.63452,2.19397-3.41083-.2952-2.00433-.5585-3.50229-.81311-4.9509-.26892-1.52994-.52295-2.97504-.77518-4.81616-.4599-2.66992-.55597-4.41403-.67761-6.62213l-.0209-.37839c-.02521-.45444.09189-.73788.78162-.93402,1.40186-.39868,2.87582-.46127,4.25983-.46954,1.15579-.0069,2.30722-.17395,3.4223-.49652.64731-.18723,1.5907-.52963,2.30685-1.33786.35913-.40533,1.10648-1.24878.71817-2.33029-.15326-.42691-.52829-.93585-1.44446-.93585-.10989,0-.22202.00644-.33243.01321-.07855.00482-.15588.01004-.22943.01004-6.77484-.13672-12.70053-1.3952-18.13901-3.84756-2.38251-1.07437-4.53076-2.59457-6.38513-4.5184l-.33936-.35208h0Z"/>
    </g>
  </g>
  <path class="cls-8" d="m91.10243,58.14737c.37081,2.24985.00149,4.21196-.90772,6.09375-.8568,1.77331-2.15484,3.24058-3.48217,4.64807-1.71211,1.81551-2.17717,3.77983-1.59318,6.21469.89577,3.73485,1.57301,7.52232,2.3281,11.29044.09468.4725-1.13315.81577-1.10115,1.29893.04584.69194,1.14532,1.45994.42473,1.74697-.68542.27302-1.35339.21152-1.94295-.26744-.6143-.49905-1.02081-1.1236-1.21966-1.90526-.35096-1.37955-.8293-2.71452-1.70904-3.85995-.77677-1.01135-1.63115-.90533-2.10761.28866-.97828,2.45152-.97773,2.39545-2.44433,6.11083-.41572,1.05315-1.37058,3.61142-1.76443,4.67056-.55924,1.50395-1.42235,2.07523-2.59553,1.85766-1.0841-.20105-1.85922-1.05795-1.62908-2.62055.61151-4.1521,1.10037-6.20534,1.58924-9.77407.48887-2.83543.5695-4.63508.70394-7.05673.05253-.94625-.46504-1.41176-1.28906-1.6461-1.45391-.41348-2.94854-.48729-4.44712-.49621-1.10124-.00656-2.17915-.16439-3.23197-.46896-.74346-.21506-1.44599-.5299-1.97743-1.12968-.41392-.46715-.81255-.99104-.5833-1.62953.23083-.64287.88999-.43947,1.38496-.44947,6.38063-.129,12.54353-1.27306,18.3893-3.90909,2.77026-1.2492,5.15261-3.0307,7.17789-5.2912.63062-.70386,1.04693-1.52863,1.34413-2.42494.13093-.39484.15326-.86344.68344-1.29138Z"/>
  <path class="cls-8" d="m32.31456,58.11955c-.37081,2.24985-.00149,4.21196.90772,6.09375.8568,1.77331,2.15484,3.24058,3.48217,4.64807,1.71211,1.81551,2.17717,3.77983,1.59318,6.21469-.89577,3.73485-1.57301,7.52232-2.3281,11.29044-.09468.4725,1.39673.95203,1.36472,1.43519-.04584.69194-1.4089,1.32368-.68831,1.61071.68542.27302,1.35339.21152,1.94295-.26744.6143-.49905,1.02081-1.1236,1.21966-1.90526.35096-1.37955.8293-3.71452,1.70904-4.85995.77677-1.01135,1.63115-.90533,2.10761.28866.97828,2.45152.97773,3.39545,2.44433,7.11083.41572,1.05315,1.37058,3.61142,1.76443,4.67056.55924,1.50395,1.42235,2.07523,2.59553,1.85766,1.0841-.20105,1.85922-1.05795,1.62908-2.62055-.61151-4.1521-1.10037-6.20534-1.58924-9.77407-.48887-2.83543-.5695-4.63508-.70394-7.05673-.05253-.94625.46504-1.41176,1.28906-1.6461,1.45391-.41348,2.94854-.48729,4.44712-.49621,1.10124-.00656,2.17915-.16439,3.23197-.46896.74346-.21506,1.44599-.5299,1.97743-1.12968.41392-.46715.81255-.99104.5833-1.62953-.23083-.64287-.88999-.43947-1.38496-.44947-6.38063-.129-12.54353-1.27306-18.3893-3.90909-2.77026-1.2492-5.15261-3.0307-7.17789-5.2912-.63062-.70386-1.04693-1.52863-1.34413-2.42494-.13093-.39484-.15326-.86344-.68344-1.29138Z"/>
  <g>
    <path class="cls-12" d="m54.29858,105.91858c-.25724-2.31745-.80365-3.57663-1.41956-5.8203-.83342-3.03597-1.81522-6.02241-3.15214-8.87745-1.03595-2.2123-2.32836-4.25637-4.24557-5.82935-1.38137-1.13334-2.9856-1.8713-4.67928-2.37224-1.97405-.58387-3.61292-1.62568-4.98598-3.14937-1.14907-1.27512-2.33674-2.51731-3.54611-3.73558-.77943-.78516-1.61943-1.50865-2.6488-1.97613-.97371-.44221-1.95016-.49133-2.9433-.09796-.89909.35612-1.21455.9848-.78807,1.84535.32621.65821.73818,1.32221,1.26351,1.8255,3.08274,2.95341,5.95384,6.10511,8.82044,9.26242.04649.05121.08874.10639.13139.16095.21643.27686.24786.55764-.01513.81854-.23201.23017-.5715.20119-.85018-.07496-.40322-.39958-.80529-.80123-1.18982-1.2186-1.86736-2.02678-3.71521-4.07174-5.599-6.08307-.72687-.77608-1.56241-1.45012-2.29273-2.22327-1.64411-1.74051-2.4671-3.81234-2.39431-6.22526.05841-1.93628.1214-3.87286.14202-5.80973.02762-2.59467-.12976-5.17828-.74019-7.71036-.1273-.52806-.41133-1.0218-.65265-1.51697-.08098-.16616-.23795-.30733-.38708-.42617-.71649-.571-1.176-.48709-1.39883.37697-.33783,1.31002-.63121,2.64123-.8076,3.98133-.52455,3.98545-.67473,7.99995-.72033,12.01455-.01082.95308.18152,1.93678.44436,2.8597,1.08048,3.79389,2.53794,7.44692,4.40681,10.92148.34822.64741.93089,1.21557,1.51656,1.68011,2.23401,1.77196,4.51225,3.4882,6.77664,5.22179.84646.64803,1.72427,1.2574,2.5456,1.93549,1.70731,1.40957,3.40848,2.82831,5.06753,4.29383.78679.69501,1.52561,1.47786,1.85533,2.51527.22979.723.43171.46659.53182,1.21624.13825,1.03527.63647,1.71517,1.58711,2.14668,2.75417,1.25019,5.62171,2.03076,8.64955,2.16575.48017.0214.97068-.0436,1.44527-.12993.14537-.02644.26452-.24931.37324-.39858.04229-.05806.03616-.16244.02895-.24366-.03917-.44136-.08557-.88207-.12948-1.32301Z"/>
    <path class="cls-15" d="m24.56453,59.4117c.0292.29324.04787.5521.08164.80898.42875,3.26164.44352,6.53324.26815,9.81229-.04937.92305-.01792,1.85065-.01419,2.77612.00065.16042.04814.32065.08131.52633.68165-.21274,1.32588-.40289,1.95859-.62575.07506-.02644.12636-.23306.12219-.35387-.0329-.95274-.0664-1.90595-.12923-2.85706-.14125-2.13833-.2838-4.27682-.45934-6.41249-.06174-.75112-.17537-1.50518-.35029-2.2376-.14907-.62417-.55051-1.11068-1.15174-1.39631-.06152-.02923-.13012-.04659-.19735-.05954-.0376-.00725-.07914.0059-.20974.01891Z"/>
    <path class="cls-15" d="m29.74589,73.03283c.00025-.16238.01083-.27124-.00096-.37762-.25591-2.30847-.50623-4.61762-.77713-6.92435-.08171-.69572-.70001-1.46686-1.36544-1.95463.01988.62337.14407,1.22566.17676,1.74018.12002,1.88924.25184,3.77772.37468,5.66679.02418.37187.0335.74496.03972,1.11766.00453.27116.13789.3912.40116.42637.31221.0417.78017.23468,1.15122.30561Z"/>
  </g>
  <g>
    <path class="cls-12" d="m69.17156,105.91858c.25724-2.31745.80365-3.57663,1.41956-5.8203.83342-3.03597,1.81522-6.02241,3.15214-8.87745,1.03595-2.2123,2.32836-4.25637,4.24557-5.82935,1.38137-1.13334,2.9856-1.8713,4.67928-2.37224,1.97405-.58387,3.61292-1.62568,4.98598-3.14937,1.14907-1.27512,2.33674-2.51731,3.54611-3.73558.77943-.78516,1.61943-1.50865,2.6488-1.97613.97371-.44221,1.95016-.49133,2.9433-.09796.89909.35612,1.21455.9848.78807,1.84535-.32621.65821-.73818,1.32221-1.26351,1.8255-3.08274,2.95341-5.95384,6.10511-8.82044,9.26242-.04649.05121-.08874.10639-.13139.16095-.21643.27686-.24786.55764.01513.81854.23201.23017.5715.20119.85018-.07496.40322-.39958.80529-.80123,1.18982-1.2186,1.86736-2.02678,3.71521-4.07174,5.599-6.08307.72687-.77608,1.56241-1.45012,2.29273-2.22327,1.64411-1.74051,2.4671-3.81234,2.39431-6.22526-.05841-1.93628-.1214-3.87286-.14202-5.80973-.02762-2.59467.12976-5.17828.74019-7.71036.1273-.52806.41133-1.0218.65265-1.51697.08098-.16616.23795-.30733.38708-.42617.71649-.571,1.176-.48709,1.39883.37697.33783,1.31002.63121,2.64123.8076,3.98133.52455,3.98545.67473,7.99995.72033,12.01455.01082.95308-.18152,1.93678-.44436,2.8597-1.08048,3.79389-2.53794,7.44692-4.40681,10.92148-.34822.64741-.93089,1.21557-1.51656,1.68011-2.23401,1.77196-4.51225,3.4882-6.77664,5.22179-.84646.64803-1.72427,1.2574-2.5456,1.93549-1.70731,1.40957-3.40848,2.82831-5.06753,4.29383-.78679.69501-1.52561,1.47786-1.85533,2.51527-.22979.723-.43171.46659-.53182,1.21624-.13825,1.03527-.63647,1.71517-1.58711,2.14668-2.75417,1.25019-5.62171,2.03076-8.64955,2.16575-.48017.0214-.97068-.0436-1.44527-.12993-.14537-.02644-.26452-.24931-.37324-.39858-.04229-.05806-.03616-.16244-.02895-.24366.03917-.44136.08557-.88207.12948-1.32301Z"/>
    <path class="cls-15" d="m98.90561,59.4117c-.0292.29324-.04787.5521-.08164.80898-.42875,3.26164-.44352,6.53324-.26815,9.81229.04937.92305.01792,1.85065.01419,2.77612-.00065.16042-.04814.32065-.08131.52633-.68165-.21274-1.32588-.40289-1.95859-.62575-.07506-.02644-.12636-.23306-.12219-.35387.0329-.95274.0664-1.90595.12923-2.85706.14125-2.13833.2838-4.27682.45934-6.41249.06174-.75112.17537-1.50518.35029-2.2376.14907-.62417.55051-1.11068,1.15174-1.39631.06152-.02923.13012-.04659.19735-.05954.0376-.00725.07914.0059.20974.01891Z"/>
    <path class="cls-15" d="m93.72425,73.03283c-.00025-.16238-.01083-.27124.00096-.37762.25591-2.30847.50623-4.61762.77713-6.92435.08171-.69572.70001-1.46686,1.36544-1.95463-.01988.62337-.14407,1.22566-.17676,1.74018-.12002,1.88924-.25184,3.77772-.37468,5.66679-.02418.37187-.0335.74496-.03972,1.11766-.00453.27116-.13789.3912-.40116.42637-.31221.0417-.78017.23468-1.15122.30561Z"/>
  </g>
  <g class="cls-9">
    <g>
      <path class="cls-13" d="m69.17156,106.91858c.25724-2.31745.80365-4.57663,1.41956-6.8203.83342-3.03597,1.81522-6.02241,3.15214-8.87745,1.03595-2.2123,2.32836-4.25637,4.24557-5.82935,1.38137-1.13334,2.9856-1.8713,4.67928-2.37224,1.97405-.58387,3.61292-1.62568,4.98598-3.14937,1.14907-1.27512,2.33674-2.51731,3.54611-3.73558.77943-.78516,1.61943-1.50865,2.6488-1.97613.97371-.44221,1.95016-.49133,2.9433-.09796.89909.35612,1.21455.9848.78807,1.84535-.32621.65821-.73818,1.32221-1.26351,1.8255-3.08274,2.95341-5.95384,6.10511-8.82044,9.26242-.04649.05121-.08874.10639-.13139.16095-.21643.27686-.24786.55764.01513.81854.23201.23017.5715.20119.85018-.07496.40322-.39958.80529-.80123,1.18982-1.2186,1.86736-2.02678,3.71521-4.07174,5.599-6.08307.72687-.77608,1.56241-1.45012,2.29273-2.22327,1.64411-1.74051,2.4671-3.81234,2.39431-6.22526-.05841-1.93628-.1214-3.87286-.14202-5.80973-.02762-2.59467.12976-5.17828.74019-7.71036.1273-.52806.41133-1.0218.65265-1.51697.08098-.16616.23795-.30733.38708-.42617.71649-.571,1.176-.48709,1.39883.37697.33783,1.31002.63121,2.64123.8076,3.98133.52455,3.98545.67473,7.99995.72033,12.01455.01082.95308-.18152,1.93678-.44436,2.8597-1.08048,3.79389-2.53794,7.44692-4.40681,10.92148-.34822.64741-.93089,1.21557-1.51656,1.68011-2.23401,1.77196-4.51225,3.4882-6.77664,5.22179-.84646.64803-1.72427,1.2574-2.5456,1.93549-1.70731,1.40957-3.40848,2.82831-5.06753,4.29383-.78679.69501-1.52561,1.47786-1.85533,2.51527-.22979.723-.43171,1.46659-.53182,2.21624-.13825,1.03527-.63647,1.71517-1.58711,2.14668-2.75417,1.25019-5.62171,2.03076-8.64955,2.16575-.48017.0214-.97068-.0436-1.44527-.12993-.14537-.02644-.26452-.24931-.37324-.39858-.04229-.05806-.03616-.16244-.02895-.24366.03917-.44136.08557-.88207.12948-1.32301Z"/>
      <path class="cls-13" d="m98.90561,59.4117c-.0292.29324-.04787.5521-.08164.80898-.42875,3.26164-.44352,6.53324-.26815,9.81229.04937.92305.01792,1.85065.01419,2.77612-.00065.16042-.04814.32065-.08131.52633-.68165-.21274-1.32588-.40289-1.95859-.62575-.07506-.02644-.12636-.23306-.12219-.35387.0329-.95274.0664-1.90595.12923-2.85706.14125-2.13833.2838-4.27682.45934-6.41249.06174-.75112.17537-1.50518.35029-2.2376.14907-.62417.55051-1.11068,1.15174-1.39631.06152-.02923.13012-.04659.19735-.05954.0376-.00725.07914.0059.20974.01891Z"/>
      <path class="cls-13" d="m93.72425,73.03283c-.00025-.16238-.01083-.27124.00096-.37762.25591-2.30847.50623-4.61762.77713-6.92435.08171-.69572.70001-1.46686,1.36544-1.95463-.01988.62337-.14407,1.22566-.17676,1.74018-.12002,1.88924-.25184,3.77772-.37468,5.66679-.02418.37187-.0335.74496-.03972,1.11766-.00453.27116-.13789.3912-.40116.42637-.31221.0417-.78017.23468-1.15122.30561Z"/>
    </g>
    <g>
      <path class="cls-13" d="m54.29858,106.91858c-.25724-2.31745-.80365-4.57663-1.41956-6.8203-.83342-3.03597-1.81522-6.02241-3.15214-8.87745-1.03595-2.2123-2.32836-4.25637-4.24557-5.82935-1.38137-1.13334-2.9856-1.8713-4.67928-2.37224-1.97405-.58387-3.61292-1.62568-4.98598-3.14937-1.14907-1.27512-2.33674-2.51731-3.54611-3.73558-.77943-.78516-1.61943-1.50865-2.6488-1.97613-.97371-.44221-1.95016-.49133-2.9433-.09796-.89909.35612-1.21455.9848-.78807,1.84535.32621.65821.73818,1.32221,1.26351,1.8255,3.08274,2.95341,5.95384,6.10511,8.82044,9.26242.04649.05121.08874.10639.13139.16095.21643.27686.24786.55764-.01513.81854-.23201.23017-.5715.20119-.85018-.07496-.40322-.39958-.80529-.80123-1.18982-1.2186-1.86736-2.02678-3.71521-4.07174-5.599-6.08307-.72687-.77608-1.56241-1.45012-2.29273-2.22327-1.64411-1.74051-2.4671-3.81234-2.39431-6.22526.05841-1.93628.1214-3.87286.14202-5.80973.02762-2.59467-.12976-5.17828-.74019-7.71036-.1273-.52806-.41133-1.0218-.65265-1.51697-.08098-.16616-.23795-.30733-.38708-.42617-.71649-.571-1.176-.48709-1.39883.37697-.33783,1.31002-.63121,2.64123-.8076,3.98133-.52455,3.98545-.67473,7.99995-.72033,12.01455-.01082.95308.18152,1.93678.44436,2.8597,1.08048,3.79389,2.53794,7.44692,4.40681,10.92148.34822.64741.93089,1.21557,1.51656,1.68011,2.23401,1.77196,4.51225,3.4882,6.77664,5.22179.84646.64803,1.72427,1.2574,2.5456,1.93549,1.70731,1.40957,3.40848,2.82831,5.06753,4.29383.78679.69501,1.52561,1.47786,1.85533,2.51527.22979.723.43171,1.46659.53182,2.21624.13825,1.03527.63647,1.71517,1.58711,2.14668,2.75417,1.25019,5.62171,2.03076,8.64955,2.16575.48017.0214.97068-.0436,1.44527-.12993.14537-.02644.26452-.24931.37324-.39858.04229-.05806.03616-.16244.02895-.24366-.03917-.44136-.08557-.88207-.12948-1.32301Z"/>
      <path class="cls-13" d="m24.56453,59.4117c.0292.29324.04787.5521.08164.80898.42875,3.26164.44352,6.53324.26815,9.81229-.04937.92305-.01792,1.85065-.01419,2.77612.00065.16042.04814.32065.08131.52633.68165-.21274,1.32588-.40289,1.95859-.62575.07506-.02644.12636-.23306.12219-.35387-.0329-.95274-.0664-1.90595-.12923-2.85706-.14125-2.13833-.2838-4.27682-.45934-6.41249-.06174-.75112-.17537-1.50518-.35029-2.2376-.14907-.62417-.55051-1.11068-1.15174-1.39631-.06152-.02923-.13012-.04659-.19735-.05954-.0376-.00725-.07914.0059-.20974.01891Z"/>
      <path class="cls-13" d="m29.74589,73.03283c.00025-.16238.01083-.27124-.00096-.37762-.25591-2.30847-.50623-4.61762-.77713-6.92435-.08171-.69572-.70001-1.46686-1.36544-1.95463.01988.62337.14407,1.22566.17676,1.74018.12002,1.88924.25184,3.77772.37468,5.66679.02418.37187.0335.74496.03972,1.11766.00453.27116.13789.3912.40116.42637.31221.0417.78017.23468,1.15122.30561Z"/>
    </g>
  </g>
  <path class="cls-5" d="m84.95151,47.66949s6.43373,4.19277,6.88554,10.8253"/>
  <path class="cls-4" d="m38.6473,47.50684s-6.43373,4.19277-6.88554,10.8253"/>
  <path class="cls-5" d="m90.55392,57.89841s-3.57831-3.50602-3.50602-2.13253"/>
  <path class="cls-4" d="m33.04682,57.89841s3.49829-3.50034,3.426-2.12684"/>
</svg>