<?xml version="1.0" encoding="UTF-8"?>
<svg id="Layer_1" data-name="Layer 1" xmlns="http://www.w3.org/2000/svg" width="640" height="640" viewBox="0 0 640 640">
  <defs>
    <style>
      .cls-1, .cls-2 {
        fill: #fff;
      }

      .cls-2 {
        stroke-width: 7.50129px;
      }

      .cls-2, .cls-3 {
        stroke: #fff;
        stroke-miterlimit: 10;
      }

      .cls-3 {
        stroke-width: 15.00258px;
      }

      .cls-3, .cls-4 {
        fill: none;
      }

      .cls-5 {
        fill: #1b75bb;
      }

      .cls-6 {
        fill: #1e4076;
      }
    </style>
  </defs>
  <rect class="cls-4" x="-435.67508" y="-727.44327" width="191.37129" height="774.94884" transform="translate(140.81368 -339.96091) rotate(-44.99732)"/>
  <rect class="cls-4" x="224.32492" y="-727.44327" width="191.37129" height="774.94884" transform="translate(334.10137 126.70773) rotate(-44.99732)"/>
  <rect class="cls-4" x="884.32492" y="-727.44327" width="191.37129" height="774.94884" transform="translate(527.38906 593.37637) rotate(-44.99732)"/>
  <rect class="cls-4" x="-435.67508" y="-67.44327" width="191.37129" height="774.94884" transform="translate(-325.85496 -146.67322) rotate(-44.99732)"/>
  <g>
    <g>
      <rect class="cls-5" x="23.46944" y="23.62474" width="592.89746" height="592.89746"/>
      <path class="cls-1" d="m593.86348,46.12856v547.88962H45.97383V46.12856h547.88965M638.8713,1.12074H.96602v637.90518h637.90527V1.12074h0Z"/>
    </g>
    <path class="cls-6" d="m353.93807,400.18414c-4.17232,19.48761-5.49411,38.9885-2.27456,58.13501,3.28182,11.0514,6.14516,20.51363,8.65597,28.65774,10.15174,22.53638,26.94266,39.37537,50.16626,49.84761,22.14172,9.98509,44.77883,12.78846,68.04639,5.06282,19.92164-6.61491,34.43479-19.54438,41.14768-39.75218,6.45604-19.43358,4.55599-37.90845-9.54006-53.82946-8.63995-9.75846-19.91111-14.65508-32.7829-15.18938-13.15565-.54575-22.83902,5.71204-30.007,17.52575,1.5498-.59703,2.44213-.88684,3.28868-1.27509,15.49843-7.10388,34.00717.44731,40.04382,16.34727,6.10213,16.07165-2.5305,33.6148-18.8535,38.93218-24.21483,7.88725-49.15489-5.09945-60.09916-25.39515-11.72077-21.73516-12.87453-44.45559-3.21726-67.11422,15.42655-36.19474,52.89546-54.85549,89.70692-49.17137,40.90319,6.31548,73.18292,40.81391,81.48727,80.80142,11.72168,56.44695-20.12355,116.9751-77.45414,139.28119-16.29965,6.34203-34.84913,11.14605-51.20098,10.9771h-4.61376l-400.39868.00432V46.03134l547.94619.26876s-204.30253,220.3616-240.04721,353.88405Z"/>
    <path class="cls-1" d="m534.85156,167.85352c8.39355,8.18945,10.44141,17.40234,10.44141,24.1582,0,9.21191-3.89062,18.62891-11.05566,25.79492-4.70898,4.70898-16.99219,14.53516-41.35449,14.53516-23.33887,0-35.41797-9.00781-40.74121-14.33008-7.37012-7.37109-11.25977-17.19727-11.25977-26,0-9.00879,4.29883-18.83594,10.03125-24.56836,4.2998-4.29883,11.25977-8.18848,17.19727-10.03125-4.70898-1.8418-9.21289-4.70898-12.2832-7.7793-4.2998-4.29883-9.21289-11.25977-9.21289-21.70117,0-10.23633,4.50391-19.44922,11.25977-25.7959,8.39355-7.7793,21.49609-12.48828,36.44141-12.48828,14.74023,0,27.22852,4.91309,35.21289,13.10254,5.11816,5.11816,10.03223,13.30664,10.03223,24.97656,0,9.82715-3.68555,16.58301-8.39453,21.29199-3.27539,3.27539-8.59863,6.55176-13.9209,8.39355,7.37012,2.25195,13.30664,6.14258,17.60645,10.44141Zm-53.22949,8.59766c-3.27539,3.27637-4.91309,7.37109-4.91309,11.26074,0,3.68457,1.22852,7.98438,4.70898,11.46484,2.86621,2.86621,6.95996,4.91309,11.66895,4.91309,4.91406,0,8.39355-1.6377,11.46484-4.70898,3.27539-3.27539,4.91309-6.96094,4.91309-11.66895,0-4.50391-1.6377-8.18848-4.91309-11.26074-3.68457-3.47949-7.98438-4.70801-11.46484-4.70801-3.88965,0-8.18848,1.6377-11.46484,4.70801Zm.61426-58.34668c-2.66113,2.86621-4.09473,6.75684-4.09473,10.44141,0,3.47949,1.84277,7.16504,4.2998,9.82715,3.07031,3.27539,7.16504,4.50391,10.85059,4.50391,3.07031,0,6.75586-.81934,10.03125-4.09473,3.07129-3.07129,4.70898-6.96094,4.70898-10.44141,0-3.68457-1.6377-7.98438-4.70898-10.85059-2.86621-2.66113-5.93652-4.09375-9.82715-4.09375-5.11816,0-8.80273,2.04688-11.25977,4.70801Z"/>
  </g>
  <rect class="cls-4" x="224.32492" y="-67.44327" width="191.37129" height="774.94884" transform="translate(-132.56727 319.99542) rotate(-44.99732)"/>
  <g>
    <g>
      <path class="cls-4" d="m185.42628,134.34802c-.2793.32296-.6034.6677-.85119.94411-1.60683,1.96677-3.23304,4.00525-4.73196,5.85729l-1.72101,2.17827c45.25253,89.62872,98.25055,192.94178,98.78567,193.99264l28.11465,55.75628,1.33793,2.62739c9.31469,18.94586,22.58811,47.95412,32.25594,70.5364,5.71651,13.29678,10.01894,24.03479,12.88775,31.84841,4.74998,13.14228,7.38305,20.38387-5.87562,26.82568-13.21441,6.42031-17.38532.30043-25.74597-11.86789-4.88418-7.0842-11.24616-17.07112-18.94599-29.68528-13.06899-21.52284-29.20279-49.39093-38.28659-66.358l-.72628-1.42625-28.70747-57.02887c-16.89513-32.74182-33.61852-65.69186-50.34199-98.64205-16.11182-31.74905-32.22364-63.4981-48.47541-95.08561-3.93588.22688-7.79572.38558-11.56649.501-5.75474.14283-11.71306.32226-13.82813-3.83126-4.62521-9.08287,14.73174-22.51388,34.39735-32.06855,8.8985-4.3234,38.55051-17.70016,46.41908-8.3515,3.76246,4.44567-1.96771,10.63174-4.39427,13.27778Z"/>
      <path class="cls-1" d="m341.99956,517.81302c4.24805-2.06394-31.14805-81.14208-48.27606-115.9768l-29.42334-58.38445s-53.39499-104.04108-99.2872-194.95525c-.77817-1.54144-.28108-3.57475,1.34439-5.57743,2.00181-2.46634,4.8236-6.03155,7.49986-9.29717,1.56322-1.90739,4.6636-4.69601,3.93634-5.56075-2.76694-3.28997-20.58115,3.50729-30.76956,8.4574-15.4833,7.52267-26.88979,15.9673-25.42447,18.84485.32472.63768,1.35238.73095,6.29601.59282,4.76613-.13314,9.04948-.35387,12.68547-.58993,2.86785-.18623,5.0617.66282,5.90784,2.30916,33.2616,64.71653,66.04963,130.07235,99.32432,194.77138l29.40602,58.3501c16.97053,31.61517,62.58199,109.05589,66.78038,107.01607Z"/>
      <path class="cls-1" d="m407.96557,475.45352c2.40775,14.64608-7.81266,32.28634-13.73766,38.19824-1.11366,1.08259-1.98359,2.42629-3.14179,3.53052-7.77215,7.0801-16.07387,12.68453-21.21221,15.01837l-33.10242,16.08304c-5.00581,2.59476-14.59016,5.6804-25.05982,7.46321-1.60031.23601-3.22222.103-4.778.31737-8.35691,1.02707-28.97004-1.63251-39.47518-12.34442-7.53543-7.71325-19.66531-17.365-31.92149-65.62884-6.57924-25.78156-11.20054-52.73062-16.41792-107.98934-1.5586-16.46697-1.9003-30.97929-2.22594-42.95417l1.26036,2.47506c15.50203,29.57102,42.3547,78.48852,63.79076,116.4424,12.60951,22.25566,22.89737,39.95212,30.62052,52.6114,13.23287,21.73625,19.84925,32.65847,33.06366,26.23815,13.25867-6.44182,8.06772-18.70652-1.32025-40.95674-5.63281-13.24149-13.78619-31.54192-24.32803-54.31454-17.85688-38.66372-41.77424-88.57427-58.13486-121.35673l-2.32179-4.55947c.02213.04346.06667.02183.0888.06529,9.91269,7.80424,22.39859,17.28303,35.8115,29.23618,41.92368,37.42471,61.13837,57.28347,78.26258,77.94168,31.96604,38.68766,32.52799,53.95978,34.27918,64.48334Z"/>
    </g>
    <path class="cls-2" d="m115.95019,419.49027c2.16116,5.95783,18.79246,50.36929,46.71815,57.00221,2.32624.55262,18.11532,4.30235,22.8797-4.36836,2.77246-5.04525,1.35252-13.45921-3.11798-18.5097-6.57286-7.42536-16.22728-3.61085-28.8294-6.53642-9.03987-2.09883-22.16616-8.26294-37.65047-27.58773Z"/>
    <path class="cls-3" d="m129.82265,273.3674c-25.71615,20.6548-36.87176,53.93318-28.54208,85.16258,9.11967,34.19165,39.99048,59.90624,76.84571,63.65669"/>
    <path class="cls-2" d="m295.57465,156.34663c-2.15886-5.23564-18.73819-44.27612-44.95663-50.71354-2.18402-.53632-17.00783-4.17557-21.2472,3.2555-2.46696,4.32394-.94124,11.67906,3.35106,16.18027,6.31085,6.61779,15.22942,3.52886,27.05949,6.37499,8.48607,2.04182,20.88252,7.71841,35.79328,24.90278Z"/>
    <path class="cls-3" d="m278.3744,280.56582c23.50584-17.35925,33.12276-46.04989,24.60483-73.42227-9.32577-29.96877-38.74761-53.08001-73.23038-57.22221"/>
  </g>
  <rect class="cls-4" x="884.32492" y="-67.44327" width="191.37129" height="774.94884" transform="translate(60.72042 786.66406) rotate(-44.99732)"/>
</svg>