<?xml version="1.0" encoding="UTF-8"?>
<svg id="Layer_10" data-name="Layer 10" xmlns="http://www.w3.org/2000/svg" width="8.36101cm" height="8.36101cm" xmlns:xlink="http://www.w3.org/1999/xlink" viewBox="0 0 237.00494 237.00497">
  <defs>
    <style>
      .cls-1 {
        stroke: #fff;
        stroke-miterlimit: 10;
        stroke-width: 1.35347px;
      }

      .cls-1, .cls-2 {
        fill: none;
      }

      .cls-3 {
        fill: #fff;
      }

      .cls-4 {
        fill: #fae0d4;
      }

      .cls-5 {
        fill: #5d3996;
      }

      .cls-6 {
        fill: #57b7ac;
      }

      .cls-7 {
        clip-path: url(#clippath);
      }

      .cls-8 {
        fill: #f9ad90;
      }
    </style>
    <clipPath id="clippath">
      <circle class="cls-2" cx="118.50246" cy="118.5025" r="108.89829"/>
    </clipPath>
  </defs>
  <g>
    <circle class="cls-4" cx="118.50226" cy="118.50241" r="113.70026"/>
    <path class="cls-5" d="m118.5025,9.60422c60.14282,0,108.89819,48.75543,108.89819,108.89828s-48.75537,108.89828-108.89819,108.89828S9.60419,178.64536,9.60419,118.5025,58.35962,9.60422,118.5025,9.60422m0-9.60422c-31.65314,0-61.41174,12.32642-83.79395,34.70859C12.32642,57.09076,0,86.84937,0,118.5025s12.32642,61.41174,34.70856,83.79391c22.3822,22.3822,52.14081,34.70856,83.79395,34.70856s61.41174-12.32635,83.79382-34.70856c22.3822-22.38217,34.70862-52.14078,34.70862-83.79391s-12.32642-61.41174-34.70862-83.79391C179.91425,12.32642,150.1557,0,118.5025,0h0Z"/>
  </g>
  <g class="cls-7">
    <path class="cls-8" d="m118.5038,299.11975c54.77003,0,99.16991-43.61865,99.16991-97.42498s-44.39988-97.42498-99.16991-97.42498S19.3339,147.88843,19.3339,201.69476s44.39988,97.42498,99.16991,97.42498"/>
  </g>
  <path class="cls-2" d="m128.87106,95.90375c-.50769,4.08052-1.90388,8.79691-6.32069,12.43858-2.91005,2.39934-4.4861,2.32612-7.4225-.04528-7.04011-5.68543-8.44463-16.4742-3.08936-23.73037,5.56768-7.54401,8.69359-7.52855,13.78227.31483,2.00996,3.09807,3.14343,6.44092,3.05028,11.02224Z"/>
  <path class="cls-2" d="m126.73947,62.92899c-.39992,3.2143-1.49973,6.9295-4.97893,9.79811-2.2923,1.89001-3.53379,1.83233-5.84685-.03567-5.54563-4.47852-6.652-12.97705-2.43355-18.69287,4.38577-5.94256,6.84811-5.93038,10.85656.248,1.58328,2.44041,2.47614,5.07364,2.40277,8.68243Z"/>
  <path class="cls-2" d="m174.80294,106.06037c-2.83814,1.48808-6.57458,2.74745-11.34073,1.81987-3.14021-.61114-3.9824-1.53991-4.15369-4.24362-.4107-6.48219,5.54562-11.97977,13.10115-12.09218,7.85523-.11689,9.60677,1.66869,7.56834,7.98014-.80518,2.49295-2.25729,4.59372-5.17508,6.53579Z"/>
  <path class="cls-2" d="m145.36199,75.88253c-1.54922,2.85424-3.92666,5.98731-8.18293,7.72188-2.80427,1.14284-3.9257.7666-5.36813-1.5547-3.4583-5.56535-1.35363-13.67508,4.62926-17.83771,6.22021-4.32776,8.48199-3.67563,9.90088,3.0541.56043,2.65818.41456,5.31412-.97908,8.61643Z"/>
  <path class="cls-2" d="m165.77019,66.00229c-1.81427,2.74139-4.48051,5.70524-8.88733,7.14915-2.90347.95133-3.98575.50116-5.20405-1.90942-2.92093-5.77938-.05589-13.72238,6.30174-17.47096,6.60981-3.89729,8.80273-3.0957,9.58059,3.70774.30723,2.68729-.08939,5.32503-1.79096,8.52349Z"/>
  <path class="cls-2" d="m144.73068,51.1386c-1.40557,2.90644-3.62472,6.1207-7.79077,8.00404-2.74483,1.24085-3.88402.90455-5.44091-1.36377-3.7327-5.43833-2.03417-13.61524,3.73594-17.98548,5.99898-4.5436,8.29128-3.97191,10.04442,2.70179.69245,2.63605.67911,5.2948-.54868,8.64342Z"/>
  <path class="cls-2" d="m185.68517,88.48967c-2.11791.6169-4.72352,1.04626-7.38574.20761-1.75402-.55255-2.02479-1.11919-1.42341-2.61026,1.44179-3.57487,6.50643-6.16865,11.13989-5.70515,4.81725.48188,5.41849,1.58046,2.52885,4.89174-1.14139,1.30792-2.57463,2.35632-4.85959,3.21606Z"/>
  <path class="cls-2" d="m177.08842,64.6417c-1.3218.83268-3.03581,1.62582-5.12745,1.53985-1.3781-.05664-1.7191-.40316-1.69446-1.563.05907-2.78074,2.92186-5.5569,6.2968-6.10628,3.50882-.57118,4.22348.08623,3.07816,2.95531-.4524,1.13326-1.17875,2.1395-2.55306,3.17412Z"/>
  <path class="cls-2" d="m186.9397,76.20933c-1.3218.83268-3.03581,1.62582-5.12745,1.53985-1.3781-.05664-1.7191-.40316-1.69446-1.563.05907-2.78074,2.92186-5.5569,6.2968-6.10628,3.50882-.57118,4.22348.08623,3.07816,2.95531-.4524,1.13326-1.17875,2.1395-2.55306,3.17412Z"/>
  <path class="cls-2" d="m173.28841,116.52565c-1.64059-.15626-3.53455-.56757-4.98748-1.83684-.95728-.83627-.92335-1.28529.03922-2.11557,2.30778-1.99061,6.65323-2.36043,9.55801-.81344,3.02001,1.60835,3.00494,2.49931-.16569,3.92759-1.25237.56415-2.60077.87777-4.44406.83826Z"/>
  <path class="cls-2" d="m159.25787,46.41275c-.9986,1.68863-2.5014,3.53082-5.09968,4.50119-1.71189.63933-2.37666.39441-3.18801-1.02445-1.94526-3.40173-.48797-8.23832,3.20535-10.6383,3.83982-2.49518,5.18311-2.0653,5.87547,2.0016.27347,1.60639.12266,3.19952-.79313,5.15996Z"/>
  <path class="cls-2" d="m123.48185,38.19638c-.23679,1.87566-.88259,4.04314-2.91618,5.71475-1.33985,1.10135-2.06435,1.06676-3.41236-.02518-3.23187-2.61794-3.86863-7.57876-1.40059-10.91153,2.56593-3.46498,4.00301-3.45603,6.33595.15284.92148,1.42548,1.4398,2.96297,1.39318,5.06912Z"/>
  <path class="cls-2" d="m185.70353,107.37615c-1.41911.71024-3.22325,1.3462-5.29233,1.07436-1.36323-.17911-1.65873-.55406-1.48833-1.70519.40852-2.75986,3.60441-5.26534,7.02949-5.51094,3.56094-.25534,4.18891.46205,2.68914,3.21296-.5924,1.08658-1.44124,2.02245-2.93796,2.92881Z"/>
  <path class="cls-2" d="m190.25519,96.48841c-1.41911.71024-3.22325,1.3462-5.29233,1.07436-1.36323-.17911-1.65873-.55406-1.48833-1.70519.40852-2.75986,3.60441-5.26534,7.02949-5.51094,3.56094-.25534,4.18891.46205,2.68914,3.21296-.5924,1.08658-1.44124,2.02245-2.93796,2.92881Z"/>
  <path class="cls-2" d="m154.04453,95.73935c-1.7816,3.28237-4.51566,6.8854-9.41035,8.88016-3.22491,1.31426-4.51455.88159-6.17334-1.78791-3.97704-6.40014-1.55668-15.72632,5.32365-20.51334,7.15323-4.97692,9.75428-4.22697,11.386,3.51221.6445,3.0569.47674,6.11123-1.12595,9.90889Z"/>
  <path class="cls-2" d="m145.36199,75.88253c-1.54922,2.85424-3.92666,5.98731-8.18293,7.72188-2.80427,1.14284-3.9257.7666-5.36813-1.5547-3.4583-5.56535-1.35363-13.67508,4.62926-17.83771,6.22021-4.32776,8.48199-3.67563,9.90088,3.0541.56043,2.65818.41456,5.31412-.97908,8.61643Z"/>
  <path class="cls-2" d="m165.77019,66.00229c-1.81427,2.74139-4.48051,5.70524-8.88733,7.14915-2.90347.95133-3.98575.50116-5.20405-1.90942-2.92093-5.77938-.05589-13.72238,6.30174-17.47096,6.60981-3.89729,8.80273-3.0957,9.58059,3.70774.30723,2.68729-.08939,5.32503-1.79096,8.52349Z"/>
  <path class="cls-2" d="m144.73068,51.1386c-1.40557,2.90644-3.62472,6.1207-7.79077,8.00404-2.74483,1.24085-3.88402.90455-5.44091-1.36377-3.7327-5.43833-2.03417-13.61524,3.73594-17.98548,5.99898-4.5436,8.29128-3.97191,10.04442,2.70179.69245,2.63605.67911,5.2948-.54868,8.64342Z"/>
  <path class="cls-2" d="m185.68517,88.48967c-2.11791.6169-4.72352,1.04626-7.38574.20761-1.75402-.55255-2.02479-1.11919-1.42341-2.61026,1.44179-3.57487,6.50643-6.16865,11.13989-5.70515,4.81725.48188,5.41849,1.58046,2.52885,4.89174-1.14139,1.30792-2.57463,2.35632-4.85959,3.21606Z"/>
  <path class="cls-2" d="m177.08842,64.6417c-1.3218.83268-3.03581,1.62582-5.12745,1.53985-1.3781-.05664-1.7191-.40316-1.69446-1.563.05907-2.78074,2.92186-5.5569,6.2968-6.10628,3.50882-.57118,4.22348.08623,3.07816,2.95531-.4524,1.13326-1.17875,2.1395-2.55306,3.17412Z"/>
  <path class="cls-2" d="m186.9397,76.20933c-1.3218.83268-3.03581,1.62582-5.12745,1.53985-1.3781-.05664-1.7191-.40316-1.69446-1.563.05907-2.78074,2.92186-5.5569,6.2968-6.10628,3.50882-.57118,4.22348.08623,3.07816,2.95531-.4524,1.13326-1.17875,2.1395-2.55306,3.17412Z"/>
  <path class="cls-2" d="m159.25787,46.41275c-.9986,1.68863-2.5014,3.53082-5.09968,4.50119-1.71189.63933-2.37666.39441-3.18801-1.02445-1.94526-3.40173-.48797-8.23832,3.20535-10.6383,3.83982-2.49518,5.18311-2.0653,5.87547,2.0016.27347,1.60639.12266,3.19952-.79313,5.15996Z"/>
  <path class="cls-2" d="m134.45382,35.3035c-.79412,1.21829-1.96475,2.53714-3.91129,3.1871-1.28249.42823-1.76327.23148-2.31092-.83305-1.31301-2.55222-.0712-6.07641,2.7314-7.7516,2.91376-1.74165,3.88755-1.39194,4.25503,1.61889.14514,1.18925-.02156,2.35824-.76422,3.77867Z"/>
  <path class="cls-2" d="m185.70353,107.37615c-1.41911.71024-3.22325,1.3462-5.29233,1.07436-1.36323-.17911-1.65873-.55406-1.48833-1.70519.40852-2.75986,3.60441-5.26534,7.02949-5.51094,3.56094-.25534,4.18891.46205,2.68914,3.21296-.5924,1.08658-1.44124,2.02245-2.93796,2.92881Z"/>
  <path class="cls-2" d="m190.25519,96.48841c-1.41911.71024-3.22325,1.3462-5.29233,1.07436-1.36323-.17911-1.65873-.55406-1.48833-1.70519.40852-2.75986,3.60441-5.26534,7.02949-5.51094,3.56094-.25534,4.18891.46205,2.68914,3.21296-.5924,1.08658-1.44124,2.02245-2.93796,2.92881Z"/>
  <path class="cls-2" d="m83.41006,95.73935c1.7816,3.28237,4.51566,6.8854,9.41035,8.88016,3.22491,1.31426,4.51455.88159,6.17334-1.78791,3.97704-6.40014,1.55668-15.72632-5.32365-20.51334-7.15323-4.97692-9.75428-4.22697-11.386,3.51221-.6445,3.0569-.47674,6.11123,1.12595,9.90889Z"/>
  <path class="cls-2" d="m62.50528,105.94376c2.80181,1.45914,6.49597,2.68482,11.22819,1.73021,3.11786-.62895,3.9601-1.55768,4.15126-4.24555.45836-6.44422-5.40298-11.86612-12.89223-11.92573-7.78632-.06199-9.53681,1.72444-7.56588,7.9821.77851,2.47171,2.20146,4.54924,5.07865,6.45897Z"/>
  <path class="cls-2" d="m92.09259,75.88253c1.54922,2.85424,3.92666,5.98731,8.18293,7.72188,2.80427,1.14284,3.9257.7666,5.36813-1.5547,3.4583-5.56535,1.35363-13.67508-4.62926-17.83771-6.22021-4.32776-8.48199-3.67563-9.90088,3.0541-.56043,2.65818-.41456,5.31412.97908,8.61643Z"/>
  <path class="cls-2" d="m63.59126,83.76574c2.11955,2.58159,5.11256,5.31553,9.66413,6.39552,2.99883.71156,4.02457.17575,4.96135-2.32237,2.24599-5.98928-1.51469-13.66311-8.27174-16.87893-7.02507-3.34339-9.11606-2.36777-9.11176,4.46709.00172,2.6997.69835,5.29303,2.75802,8.3387Z"/>
  <path class="cls-2" d="m71.68439,66.00229c1.81427,2.74139,4.48051,5.70524,8.88733,7.14915,2.90347.95133,3.98575.50116,5.20405-1.90942,2.92093-5.77938.05589-13.72238-6.30174-17.47096-6.60981-3.89729-8.80273-3.0957-9.58059,3.70774-.30723,2.68729.08939,5.32503,1.79096,8.52349Z"/>
  <path class="cls-2" d="m92.7239,51.1386c1.40557,2.90644,3.62472,6.1207,7.79077,8.00404,2.74483,1.24085,3.88402.90455,5.44091-1.36377,3.7327-5.43833,2.03417-13.61524-3.73594-17.98548-5.99898-4.5436-8.29128-3.97191-10.04442,2.70179-.69245,2.63605-.67911,5.2948.54868,8.64342Z"/>
  <path class="cls-2" d="m51.76942,88.48967c2.11791.6169,4.72352,1.04626,7.38574.20761,1.75402-.55255,2.02479-1.11919,1.42341-2.61026-1.44179-3.57487-6.50643-6.16865-11.13989-5.70515-4.81725.48188-5.41849,1.58046-2.52885,4.89174,1.14139,1.30792,2.57463,2.35632,4.85959,3.21606Z"/>
  <path class="cls-2" d="m60.36617,64.6417c1.3218.83268,3.03581,1.62582,5.12745,1.53985,1.3781-.05664,1.7191-.40316,1.69446-1.563-.05907-2.78074-2.92186-5.5569-6.2968-6.10628-3.50882-.57118-4.22348.08623-3.07816,2.95531.4524,1.13326,1.17875,2.1395,2.55306,3.17412Z"/>
  <path class="cls-2" d="m50.51488,76.20933c1.3218.83268,3.03581,1.62582,5.12745,1.53985,1.3781-.05664,1.7191-.40316,1.69446-1.563-.05907-2.78074-2.92186-5.5569-6.2968-6.10628-3.50882-.57118-4.22348.08623-3.07816,2.95531.4524,1.13326,1.17875,2.1395,2.55306,3.17412Z"/>
  <path class="cls-2" d="m64.16618,116.52565c1.64059-.15626,3.53455-.56757,4.98748-1.83684.95728-.83627.92335-1.28529-.03922-2.11557-2.30778-1.99061-6.65323-2.36043-9.55801-.81344-3.02001,1.60835-3.00494,2.49931.16569,3.92759,1.25237.56415,2.60077.87777,4.44406.83826Z"/>
  <path class="cls-2" d="m78.19671,46.41275c.9986,1.68863,2.5014,3.53082,5.09968,4.50119,1.71189.63933,2.37666.39441,3.18801-1.02445,1.94526-3.40173.48797-8.23832-3.20535-10.6383-3.83982-2.49518-5.18311-2.0653-5.87547,2.0016-.27347,1.60639-.12266,3.19952.79313,5.15996Z"/>
  <path class="cls-2" d="m103.00076,35.3035c.79412,1.21829,1.96475,2.53714,3.91129,3.1871,1.28249.42823,1.76327.23148,2.31092-.83305,1.31301-2.55222.0712-6.07641-2.7314-7.7516-2.91376-1.74165-3.88755-1.39194-4.25503,1.61889-.14514,1.18925.02156,2.35824.76422,3.77867Z"/>
  <path class="cls-2" d="m51.75105,107.37615c1.41911.71024,3.22325,1.3462,5.29233,1.07436,1.36323-.17911,1.65873-.55406,1.48833-1.70519-.40852-2.75986-3.60441-5.26534-7.02949-5.51094-3.56094-.25534-4.18891.46205-2.68914,3.21296.5924,1.08658,1.44124,2.02245,2.93796,2.92881Z"/>
  <path class="cls-2" d="m47.19939,96.48841c1.41911.71024,3.22325,1.3462,5.29233,1.07436,1.36323-.17911,1.65873-.55406,1.48833-1.70519-.40852-2.75986-3.60441-5.26534-7.02949-5.51094-3.56094-.25534-4.18891.46205-2.68914,3.21296.5924,1.08658,1.44124,2.02245,2.93796,2.92881Z"/>
  <path class="cls-3" d="m125.24723,131.79208c-.48235,4.47185-.205,2.22833-.01384,6.74603.1501,3.54736.87815,7.02908,2.40495,10.29538,1.88096,4.02399,5.07969,6.09998,9.43305,6.64338,4.3731.54585,8.69171.02654,12.92949-.84284,4.29758-.88165,8.08598-.45831,11.43921,2.5641,2.23082,2.01071,4.88324,2.11939,7.65074,1.40576.90491-.23334,1.8094-.46858,2.7119-.71102,4.2899-1.15239,8.58739-2.19836,13.0969-1.86968,2.82417.20586,7.35003,1.62785,8.88145,3.07258-8.29548-3.50828-15.79562.08029-23.53613,2.24888.59025,1.69739,1.66183,2.58787,3.13159,2.93744,1.24121.29522,2.51959.43692,3.78372.63237,2.83762.43877,5.51458,1.22847,7.51659,3.1947-2.78442-.55983-5.63557-1.2781-8.53075-1.67495-2.97669-.40801-5.64322-1.32358-8.26685-2.86058-3.16162-1.85212-6.59371-3.26966-9.98812-4.68479-1.56107-.65079-3.3113-.85119-5.36333.15166.56513.44933,1.00096.74889,1.38203,1.10675,1.97059,1.85056,3.92866,3.71446,5.88795,5.57702,1.00003.95068,1.9848,1.91756,2.99226,2.86022,1.04851.98107,2.29783,1.09425,3.69842,1.07448,2.09234-.0295,4.25606-.05128,6.26885.42906,3.7045.88402,7.33262,1.93817,11.3793.33714-1.05504,1.60812-2.45528,1.8609-3.79226,1.80223-2.84689-.12495-5.70213-.34127-8.52069-.74976-2.69529-.39062-5.32773-.26624-8.09453.10492.94757,2.09093,2.18648,3.60022,4.12044,4.65713,1.66223.90837,3.11329,2.20331,4.65772,3.32732-.09062.12674-.18123.25347-.27185.38019-1.48944-.58946-2.94399-1.30164-4.47708-1.73752-1.94448-.55282-2.63955-.01852-2.87405,1.97185-.19838,1.68386-.316,3.37724-.46935,5.06639-.17132-.00652-.34264-.01306-.51395-.01958,0-1.81747.04926-3.63677-.01924-5.45166-.03849-1.01967-.03559-2.14633-.46159-3.02603-1.24055-2.56177-2.53771-5.12166-4.09322-7.49861-1.80489-2.758-4.27911-4.8929-7.31275-6.28638-3.59297-1.65043-7.25086-1.7706-11.02348-.52005,1.80963,3.91107,3.47763,5.06769,7.44442,5.46383,1.45653.14544,2.89076.51441,4.33515.78141-.02056.16721-.04111.33441-.06167.50162-1.99496,0-3.98993,0-6.20695,0,3.51489,6.61935,6.29973,13.41873,13.16755,17.17549-1.7773-.71321-3.3857-1.61289-5.01694-2.46901-2.28838-1.20099-4.10242-2.88692-5.35893-5.14991-.66919-1.20525-1.32829-2.41781-1.94132-3.6522-1.88142-3.78847-4.64975-6.81227-8.41007-8.6587-3.55986-1.748-7.33693-3.05591-11.03078-4.52643-.69676-.27739-1.45136-.40941-2.347-.6544.87559,3.21496,2.37519,5.72355,4.86553,7.51298,1.71564,1.23279,3.54057,2.32357,5.37057,3.38479,3.62136,2.10004,6.58251,4.85281,8.59001,8.54807,1.8831,3.46625,4.45543,6.22,7.89886,8.1847,1.10845.63241,2.0797,1.50541,3.11372,2.26834-.08308.13709-.16617.27419-.24924.41127-3.40382-1.55339-6.80764-3.1068-10.33389-4.71608.10848,2.41436.36219,4.62679,2.1708,6.2341,2.11926,1.88339,2.04986,4.29253,2.00895,6.21368-.87277-1.54859-1.75383-3.57842-3.05448-5.28907-1.31182-1.72538-2.41549-3.46924-2.85717-5.58812-.32125-1.54118-.58646-3.09439-.85884-4.64536-.8727-4.96911-3.56543-7.56848-8.48918-8.068.48616,3.74823,1.01759,7.44969,3.34738,10.55891,1.88675,2.51795,2.16885,5.372,2.04837,8.36272-.32173-.54469-.50197-1.13889-.75062-1.7029-.87134-1.97666-1.61548-4.03046-2.69409-5.88881-1.10699-1.90728-2.44123-1.79752-3.53664.13825-.61148,1.08063-1.05265,2.25766-1.57056,3.39124-.14378-1.11519-.0549-2.18243-.03087-3.25114.06528-2.90136.29448-5.81642.09783-8.70143-.19586-2.87359-1.4878-5.31252-4.12111-7.00828-1.2414,2.71359-1.41466,5.42226-1.137,8.11619.28178,2.7338.75846,5.46367,1.38095,8.1415.59556,2.56204,1.48832,5.05499,2.32042,7.80997-6.30323-9.1809-7.04047-15.82267-5.94277-26.03589.28131-2.6174-1.49052-5.41924-4.02384-6.09753h-.02392c-2.53332.67828-4.30516,3.48013-4.02384,6.09753,1.0977,10.21323.36046,16.855-5.94277,26.03589.83211-2.75498,1.72487-5.24793,2.32042-7.80997.62249-2.67783,1.09917-5.4077,1.38095-8.1415.27766-2.69393.10441-5.4026-1.137-8.11619-2.6333,1.69576-3.92524,4.13469-4.12111,7.00828-.19665,2.88501.03255,5.80007.09783,8.70143.02403,1.06872.11291,2.13596-.03087,3.25114-.51791-1.13358-.95908-2.31061-1.57056-3.39124-1.0954-1.93577-2.42965-2.04553-3.53664-.13825-1.07861,1.85835-1.82275,3.91216-2.69409,5.88881-.24865.56401-.42888,1.15821-.75062,1.7029-.12048-2.99072.16162-5.84476,2.04837-8.36272,2.32979-3.10923,2.86122-6.81068,3.34738-10.55891-4.92374.49953-7.61648,3.09889-8.48918,8.068-.27238,1.55097-.53759,3.10418-.85884,4.64536-.44167,2.11888-1.54534,3.86274-2.85717,5.58812-1.30065,1.71065-2.18171,3.74048-3.05448,5.28907-.04091-1.92115-.11031-4.33029,2.00895-6.21368,1.80861-1.60731,2.06232-3.81974,2.1708-6.2341-3.52624,1.60928-6.93007,3.16269-10.33389,4.71608-.08307-.13708-.16616-.27417-.24924-.41127,1.03402-.76293,2.00528-1.63592,3.11372-2.26834,3.44343-1.9647,6.01575-4.71845,7.89886-8.1847,2.0075-3.69526,4.96865-6.44803,8.59001-8.54807,1.83001-1.06122,3.65494-2.152,5.37057-3.38479,2.49034-1.78942,3.98995-4.29802,4.86553-7.51298-.89564.24499-1.65024.37701-2.347.6544-3.69386,1.47052-7.47092,2.77843-11.03078,4.52643-3.76032,1.84643-6.52864,4.87023-8.41007,8.6587-.61303,1.2344-1.27213,2.44695-1.94132,3.6522-1.25651,2.26299-3.07055,3.94892-5.35893,5.14991-1.63124.85612-3.23965,1.7558-5.01694,2.46901,6.86782-3.75676,9.65266-10.55615,13.16755-17.17549h-6.20695c-.02056-.16721-.04111-.33441-.06167-.50162,1.44439-.267,2.87862-.63597,4.33515-.78141,3.9668-.39614,5.63479-1.55276,7.44442-5.46383-3.77262-1.25055-7.43051-1.13038-11.02348.52005-3.03364,1.39348-5.50786,3.52839-7.31275,6.28638-1.55551,2.37696-2.85267,4.93684-4.09322,7.49861-.426.8797-.4231,2.00636-.46159,3.02603-.0685,1.81488-.01924,3.63419-.01924,5.45166-.17132.00652-.34263.01306-.51395.01958-.15335-1.68915-.27096-3.38253-.46935-5.06639-.23449-1.99037-.92956-2.52467-2.87405-1.97185-1.53309.43587-2.98764,1.14805-4.47708,1.73752-.09062-.12672-.18123-.25345-.27185-.38019,1.54443-1.124,2.99549-2.41894,4.65772-3.32732,1.93395-1.0569,3.17286-2.56619,4.12044-4.65713-2.7668-.37116-5.39924-.49553-8.09453-.10492-2.81856.40848-5.6738.6248-8.52069.74976-1.33698.05866-2.73722-.19412-3.79226-1.80223,4.04668,1.60104,7.6748.54688,11.3793-.33714,2.01279-.48034,4.17652-.45857,6.26885-.42906,1.40059.01977,2.64991-.09341,3.69842-1.07448,1.00746-.94266,1.99224-1.90954,2.99226-2.86022,1.95929-1.86256,3.91737-3.72646,5.88795-5.57702.38107-.35786.8169-.65742,1.38203-1.10675-2.05204-1.00285-3.80226-.80244-5.36333-.15166-3.39442,1.41512-6.8265,2.83267-9.98812,4.68479-2.62363,1.53701-5.29016,2.45257-8.26685,2.86058-2.89518.39685-5.74632,1.11512-8.53075,1.67495,2.00201-1.96623,4.67896-2.75594,7.51659-3.1947,1.26413-.19545,2.54251-.33715,3.78372-.63237,1.46975-.34957,2.54134-1.24005,3.13159-2.93744-7.7405-2.16859-15.24064-5.75716-23.53613-2.24888,1.53142-1.44474,6.05728-2.86673,8.88145-3.07258,4.50951-.32868,8.807.71729,13.0969,1.86968.9025.24245,1.80698.47768,2.7119.71102,2.76751.71362,5.41992.60495,7.65074-1.40576,3.35323-3.02241,7.14163-3.44575,11.43921-2.5641,4.23778.86938,8.55639,1.38869,12.92949.84284,4.35336-.54339,7.55209-2.61938,9.43305-6.64338,1.5268-3.2663,2.25485-6.74802,2.40495-10.29538.19117-4.5177.46852-2.27418-.01384-6.74603"/>
  <g>
    <line class="cls-1" x1="102.14892" y1="80.49136" x2="110.72092" y2="93.57493"/>
    <line class="cls-1" x1="95.83272" y1="102.59809" x2="102.60008" y2="115.68166"/>
    <line class="cls-1" x1="83.2003" y1="71.01705" x2="88.61419" y2="84.10062"/>
    <line class="cls-1" x1="84.10262" y1="48.45916" x2="95.83272" y2="64.70084"/>
    <line class="cls-1" x1="75.98178" y1="85.00294" x2="86.3584" y2="88.6122"/>
    <line class="cls-1" x1="96.73503" y1="75.07747" x2="93.57693" y2="89.06336"/>
    <line class="cls-1" x1="71.01904" y1="85.00294" x2="69.66557" y2="95.37957"/>
    <line class="cls-1" x1="52.97273" y1="96.28188" x2="60.19126" y2="96.73304"/>
    <line class="cls-1" x1="57.93547" y1="106.65851" x2="66.05631" y2="103.04925"/>
    <line class="cls-1" x1="67.86094" y1="112.32411" x2="81.84683" y2="116.83569"/>
    <line class="cls-1" x1="58.38663" y1="86.35641" x2="69.21441" y2="94.02609"/>
    <line class="cls-1" x1="53.42389" y1="74.17515" x2="64.70283" y2="80.0402"/>
    <line class="cls-1" x1="64.70283" y1="61.9939" x2="73.72599" y2="61.9939"/>
    <line class="cls-1" x1="61.99589" y1="62.89621" x2="63.80052" y2="73.27284"/>
    <line class="cls-1" x1="99.89313" y1="54.32421" x2="98.53966" y2="65.60316"/>
    <line class="cls-1" x1="103.95355" y1="52.97074" x2="116.58597" y2="60.64042"/>
    <line class="cls-1" x1="83.65146" y1="44.8499" x2="95.83272" y2="46.65453"/>
    <line class="cls-1" x1="80.49335" y1="45.30106" x2="79.13988" y2="57.48232"/>
    <line class="cls-1" x1="105.30703" y1="34.02212" x2="99.89313" y2="48.45916"/>
    <line class="cls-1" x1="107.11166" y1="34.47328" x2="118.84176" y2="37.18022"/>
    <line class="cls-1" x1="103.5024" y1="74.17515" x2="116.13481" y2="82.74715"/>
    <line class="cls-1" x1="116.13481" y1="65.152" x2="101.24661" y2="70.11473"/>
    <line class="cls-1" x1="82.29798" y1="66.05431" x2="92.67461" y2="69.66358"/>
    <line class="cls-1" x1="79.13988" y1="67.40779" x2="70.11673" y2="79.13789"/>
    <line class="cls-1" x1="55.67968" y1="83.64946" x2="68.3121" y2="83.19831"/>
    <polyline class="cls-1" points="47.10768 82.29599 49.36347 71.46821 59.28894 59.73811 80.0422 39.88717 104.85587 30.41286"/>
    <polyline class="cls-1" points="47.10768 81.84483 45.75421 91.7703 48.91231 102.14693 58.83778 112.97472"/>
    <line class="cls-1" x1="63.80052" y1="111.62124" x2="68.3121" y2="104.40272"/>
    <line class="cls-1" x1="75.98178" y1="102.14693" x2="87.99453" y2="98.24958"/>
    <line class="cls-1" x1="95.83272" y1="94.47725" x2="111.17208" y2="97.63535"/>
    <line class="cls-1" x1="104.85587" y1="45.30106" x2="117.93944" y2="40.33833"/>
  </g>
  <g>
    <line class="cls-1" x1="135.53459" y1="80.49136" x2="126.9626" y2="93.57493"/>
    <line class="cls-1" x1="141.8508" y1="102.59809" x2="135.08344" y2="115.68166"/>
    <line class="cls-1" x1="154.48322" y1="71.01705" x2="149.06932" y2="84.10062"/>
    <line class="cls-1" x1="153.5809" y1="48.45916" x2="141.8508" y2="64.70084"/>
    <line class="cls-1" x1="161.70174" y1="85.00294" x2="151.32511" y2="88.6122"/>
    <line class="cls-1" x1="140.94849" y1="75.07747" x2="144.10659" y2="89.06336"/>
    <line class="cls-1" x1="166.66447" y1="85.00294" x2="168.01795" y2="95.37957"/>
    <line class="cls-1" x1="184.71078" y1="96.28188" x2="177.49226" y2="96.73304"/>
    <line class="cls-1" x1="179.74805" y1="106.65851" x2="171.62721" y2="103.04925"/>
    <line class="cls-1" x1="169.82258" y1="112.32411" x2="155.83669" y2="116.83569"/>
    <line class="cls-1" x1="179.29689" y1="86.35641" x2="168.46911" y2="94.02609"/>
    <line class="cls-1" x1="184.25962" y1="74.17515" x2="172.98068" y2="80.0402"/>
    <line class="cls-1" x1="172.98068" y1="61.9939" x2="163.95753" y2="61.9939"/>
    <line class="cls-1" x1="175.68763" y1="62.89621" x2="173.883" y2="73.27284"/>
    <line class="cls-1" x1="137.79038" y1="54.32421" x2="139.14385" y2="65.60316"/>
    <line class="cls-1" x1="133.72996" y1="52.97074" x2="121.09755" y2="60.64042"/>
    <line class="cls-1" x1="154.03206" y1="44.8499" x2="141.8508" y2="46.65453"/>
    <line class="cls-1" x1="157.19016" y1="45.30106" x2="158.54364" y2="57.48232"/>
    <line class="cls-1" x1="132.37649" y1="34.02212" x2="137.79038" y2="48.45916"/>
    <line class="cls-1" x1="130.57186" y1="34.47328" x2="118.84176" y2="37.18022"/>
    <line class="cls-1" x1="134.18112" y1="74.17515" x2="121.5487" y2="82.74715"/>
    <line class="cls-1" x1="121.5487" y1="65.152" x2="136.43691" y2="70.11473"/>
    <line class="cls-1" x1="155.38553" y1="66.05431" x2="145.0089" y2="69.66358"/>
    <line class="cls-1" x1="158.54364" y1="67.40779" x2="167.56679" y2="79.13789"/>
    <line class="cls-1" x1="182.00384" y1="83.64946" x2="169.37142" y2="83.19831"/>
    <polyline class="cls-1" points="132.82765 30.41286 157.64132 39.88717 178.39457 59.73811 188.32004 71.46821 190.57583 82.29599"/>
    <polyline class="cls-1" points="190.57583 81.84483 191.92931 91.7703 188.7712 102.14693 178.84573 112.97472"/>
    <line class="cls-1" x1="173.883" y1="111.62124" x2="169.37142" y2="104.40272"/>
    <line class="cls-1" x1="161.70174" y1="102.14693" x2="149.68899" y2="98.24958"/>
    <line class="cls-1" x1="141.8508" y1="94.47725" x2="126.51144" y2="97.63535"/>
    <line class="cls-1" x1="132.82765" y1="45.30106" x2="119.74407" y2="40.33833"/>
  </g>
  <line class="cls-1" x1="104.85587" y1="30.18728" x2="132.82765" y2="30.18728"/>
  <path class="cls-3" d="m113.98515,155.6792c-.69232.09804-26.92212,4.99752-26.32675,4.63084,3.92183-2.41545,8.18312-3.91276,12.68287-4.52879,4.74047-.64899,7.67844-2.69906,9.30189-7.35213,2.21504-6.34864,1.93488-12.75495,1.48493-19.22778-.34982-5.03248-.82396-5.66726-5.18864-3.59659-11.64262,5.52336-16.87515-1.61492-25.33248-7.4378-.56708-.39043-1.31344-1.01968-.77752-1.84582.47878-.73803,1.32519-.46479,2.04764-.28554,2.10946.52339,4.00387,1.43855,5.84246,2.64556,3.85584,2.53129,7.98301,4.14386,12.67131,2.29095.99659-.39386,2.65129-.61498,2.32544-1.91755-.38989-1.55864-1.90694-.46618-2.85054-.31953-1.3361.20764-2.58943.98575-3.92438,1.15463-2.34221.29632-4.43196-.06476-5.47872-2.67055-.17796-.44302.17825-.94479.65276-.8921,3.41016.37866,6.37982-.75284,9.38989-1.68961,5.14246-1.60037,9.53245-.33914,13.35892,3.39706,1.8953,1.85059,3.25628,4.04361,4.55413,6.5903l.02747.03644c.25355.4471.90214.42151,1.13553-.03644,1.29785-2.54669,2.65883-4.73971,4.55413-6.5903,3.82646-3.73619,8.21646-4.99743,13.35892-3.39706,3.01008.93677,5.97974,2.06826,9.38989,1.68961.47451-.05269.83072.44908.65276.8921-1.04676,2.6058-3.13651,2.96687-5.47872,2.67055-1.33495-.16888-2.58829-.94699-3.92438-1.15463-.9436-.14664-2.46065-1.23911-2.85054.31953-.32586,1.30258,1.32885,1.52369,2.32544,1.91755,4.6883,1.85291,8.81547.24034,12.67131-2.29095,1.83859-1.207,3.733-2.12216,5.84246-2.64556.72245-.17925,1.56886-.45248,2.04764.28554.53591.82614-.21045,1.45539-.77752,1.84582-8.45733,5.82288-13.68986,12.96116-25.33248,7.4378-4.36469-2.07066-4.83883-1.43589-5.18864,3.59659-.44995,6.47283-.73011,12.87914,1.48493,19.22778,1.62345,4.65307,4.56142,6.70313,9.30189,7.35213,4.49975.61602,8.76104,2.11333,12.68287,4.52879.59537.36669-18.19328-2.45298-18.8856-2.55101"/>
  <g>
    <path class="cls-6" d="m128.87106,95.90375c-.50769,4.08052-1.90388,8.79691-6.32069,12.43858-2.91005,2.39934-4.4861,2.32612-7.4225-.04528-7.04011-5.68543-8.44463-16.4742-3.08936-23.73037,5.56768-7.54401,8.69359-7.52855,13.78227.31483,2.00996,3.09807,3.14343,6.44092,3.05028,11.02224Z"/>
    <path class="cls-6" d="m126.73947,62.92899c-.39992,3.2143-1.49973,6.9295-4.97893,9.79811-2.2923,1.89001-3.53379,1.83233-5.84685-.03567-5.54563-4.47852-6.652-12.97705-2.43355-18.69287,4.38577-5.94256,6.84811-5.93038,10.85656.248,1.58328,2.44041,2.47614,5.07364,2.40277,8.68243Z"/>
    <path class="cls-6" d="m174.80294,106.06037c-2.83814,1.48808-6.57458,2.74745-11.34073,1.81987-3.14021-.61114-3.9824-1.53991-4.15369-4.24362-.4107-6.48219,5.54562-11.97977,13.10115-12.09218,7.85523-.11689,9.60677,1.66869,7.56834,7.98014-.80518,2.49295-2.25729,4.59372-5.17508,6.53579Z"/>
    <path class="cls-6" d="m145.36199,75.88253c-1.54922,2.85424-3.92666,5.98731-8.18293,7.72188-2.80427,1.14284-3.9257.7666-5.36813-1.5547-3.4583-5.56535-1.35363-13.67508,4.62926-17.83771,6.22021-4.32776,8.48199-3.67563,9.90088,3.0541.56043,2.65818.41456,5.31412-.97908,8.61643Z"/>
    <path class="cls-6" d="m173.86332,83.76574c-2.11955,2.58159-5.11256,5.31553-9.66413,6.39552-2.99883.71156-4.02457.17575-4.96135-2.32237-2.24599-5.98928,1.51469-13.66311,8.27174-16.87893,7.02507-3.34339,9.11606-2.36777,9.11176,4.46709-.00172,2.6997-.69835,5.29303-2.75802,8.3387Z"/>
    <path class="cls-6" d="m165.77019,66.00229c-1.81427,2.74139-4.48051,5.70524-8.88733,7.14915-2.90347.95133-3.98575.50116-5.20405-1.90942-2.92093-5.77938-.05589-13.72238,6.30174-17.47096,6.60981-3.89729,8.80273-3.0957,9.58059,3.70774.30723,2.68729-.08939,5.32503-1.79096,8.52349Z"/>
    <path class="cls-6" d="m144.73068,51.1386c-1.40557,2.90644-3.62472,6.1207-7.79077,8.00404-2.74483,1.24085-3.88402.90455-5.44091-1.36377-3.7327-5.43833-2.03417-13.61524,3.73594-17.98548,5.99898-4.5436,8.29128-3.97191,10.04442,2.70179.69245,2.63605.67911,5.2948-.54868,8.64342Z"/>
    <path class="cls-6" d="m185.68517,88.48967c-2.11791.6169-4.72352,1.04626-7.38574.20761-1.75402-.55255-2.02479-1.11919-1.42341-2.61026,1.44179-3.57487,6.50643-6.16865,11.13989-5.70515,4.81725.48188,5.41849,1.58046,2.52885,4.89174-1.14139,1.30792-2.57463,2.35632-4.85959,3.21606Z"/>
    <path class="cls-6" d="m177.08842,64.6417c-1.3218.83268-3.03581,1.62582-5.12745,1.53985-1.3781-.05664-1.7191-.40316-1.69446-1.563.05907-2.78074,2.92186-5.5569,6.2968-6.10628,3.50882-.57118,4.22348.08623,3.07816,2.95531-.4524,1.13326-1.17875,2.1395-2.55306,3.17412Z"/>
    <path class="cls-6" d="m186.9397,76.20933c-1.3218.83268-3.03581,1.62582-5.12745,1.53985-1.3781-.05664-1.7191-.40316-1.69446-1.563.05907-2.78074,2.92186-5.5569,6.2968-6.10628,3.50882-.57118,4.22348.08623,3.07816,2.95531-.4524,1.13326-1.17875,2.1395-2.55306,3.17412Z"/>
    <path class="cls-6" d="m173.28841,115.57818c-1.64059-.15626-3.53455-.56757-4.98748-1.83684-.95728-.83627-.92335-1.28529.03922-2.11557,2.30778-1.99061,6.65323-2.36043,9.55801-.81344,3.02001,1.60835,3.00494,2.49931-.16569,3.92759-1.25237.56415-2.60077.87777-4.44406.83826Z"/>
    <path class="cls-6" d="m159.25787,46.41275c-.9986,1.68863-2.5014,3.53082-5.09968,4.50119-1.71189.63933-2.37666.39441-3.18801-1.02445-1.94526-3.40173-.48797-8.23832,3.20535-10.6383,3.83982-2.49518,5.18311-2.0653,5.87547,2.0016.27347,1.60639.12266,3.19952-.79313,5.15996Z"/>
    <path class="cls-6" d="m123.48185,40.00101c-.23679,1.87566-.88259,4.04314-2.91618,5.71475-1.33985,1.10135-2.06435,1.06676-3.41236-.02518-3.23187-2.61794-3.86863-7.57876-1.40059-10.91153,2.56593-3.46498,4.00301-3.45603,6.33595.15284.92148,1.42548,1.4398,2.96297,1.39318,5.06912Z"/>
    <path class="cls-6" d="m185.70353,107.37615c-1.41911.71024-3.22325,1.3462-5.29233,1.07436-1.36323-.17911-1.65873-.55406-1.48833-1.70519.40852-2.75986,3.60441-5.26534,7.02949-5.51094,3.56094-.25534,4.18891.46205,2.68914,3.21296-.5924,1.08658-1.44124,2.02245-2.93796,2.92881Z"/>
    <path class="cls-6" d="m190.25519,96.48841c-1.41911.71024-3.22325,1.3462-5.29233,1.07436-1.36323-.17911-1.65873-.55406-1.48833-1.70519.40852-2.75986,3.60441-5.26534,7.02949-5.51094,3.56094-.25534,4.18891.46205,2.68914,3.21296-.5924,1.08658-1.44124,2.02245-2.93796,2.92881Z"/>
    <path class="cls-6" d="m154.04453,95.73935c-1.7816,3.28237-4.51566,6.8854-9.41035,8.88016-3.22491,1.31426-4.51455.88159-6.17334-1.78791-3.97704-6.40014-1.55668-15.72632,5.32365-20.51334,7.15323-4.97692,9.75428-4.22697,11.386,3.51221.6445,3.0569.47674,6.11123-1.12595,9.90889Z"/>
    <path class="cls-6" d="m145.36199,75.88253c-1.54922,2.85424-3.92666,5.98731-8.18293,7.72188-2.80427,1.14284-3.9257.7666-5.36813-1.5547-3.4583-5.56535-1.35363-13.67508,4.62926-17.83771,6.22021-4.32776,8.48199-3.67563,9.90088,3.0541.56043,2.65818.41456,5.31412-.97908,8.61643Z"/>
    <path class="cls-6" d="m165.77019,66.00229c-1.81427,2.74139-4.48051,5.70524-8.88733,7.14915-2.90347.95133-3.98575.50116-5.20405-1.90942-2.92093-5.77938-.05589-13.72238,6.30174-17.47096,6.60981-3.89729,8.80273-3.0957,9.58059,3.70774.30723,2.68729-.08939,5.32503-1.79096,8.52349Z"/>
    <path class="cls-6" d="m144.73068,51.1386c-1.40557,2.90644-3.62472,6.1207-7.79077,8.00404-2.74483,1.24085-3.88402.90455-5.44091-1.36377-3.7327-5.43833-2.03417-13.61524,3.73594-17.98548,5.99898-4.5436,8.29128-3.97191,10.04442,2.70179.69245,2.63605.67911,5.2948-.54868,8.64342Z"/>
    <path class="cls-6" d="m185.68517,88.48967c-2.11791.6169-4.72352,1.04626-7.38574.20761-1.75402-.55255-2.02479-1.11919-1.42341-2.61026,1.44179-3.57487,6.50643-6.16865,11.13989-5.70515,4.81725.48188,5.41849,1.58046,2.52885,4.89174-1.14139,1.30792-2.57463,2.35632-4.85959,3.21606Z"/>
    <path class="cls-6" d="m177.08842,64.6417c-1.3218.83268-3.03581,1.62582-5.12745,1.53985-1.3781-.05664-1.7191-.40316-1.69446-1.563.05907-2.78074,2.92186-5.5569,6.2968-6.10628,3.50882-.57118,4.22348.08623,3.07816,2.95531-.4524,1.13326-1.17875,2.1395-2.55306,3.17412Z"/>
    <path class="cls-6" d="m186.9397,76.20933c-1.3218.83268-3.03581,1.62582-5.12745,1.53985-1.3781-.05664-1.7191-.40316-1.69446-1.563.05907-2.78074,2.92186-5.5569,6.2968-6.10628,3.50882-.57118,4.22348.08623,3.07816,2.95531-.4524,1.13326-1.17875,2.1395-2.55306,3.17412Z"/>
    <path class="cls-6" d="m159.25787,46.41275c-.9986,1.68863-2.5014,3.53082-5.09968,4.50119-1.71189.63933-2.37666.39441-3.18801-1.02445-1.94526-3.40173-.48797-8.23832,3.20535-10.6383,3.83982-2.49518,5.18311-2.0653,5.87547,2.0016.27347,1.60639.12266,3.19952-.79313,5.15996Z"/>
    <path class="cls-6" d="m134.45382,35.3035c-.79412,1.21829-1.96475,2.53714-3.91129,3.1871-1.28249.42823-1.76327.23148-2.31092-.83305-1.31301-2.55222-.0712-6.07641,2.7314-7.7516,2.91376-1.74165,3.88755-1.39194,4.25503,1.61889.14514,1.18925-.02156,2.35824-.76422,3.77867Z"/>
    <path class="cls-6" d="m185.70353,107.37615c-1.41911.71024-3.22325,1.3462-5.29233,1.07436-1.36323-.17911-1.65873-.55406-1.48833-1.70519.40852-2.75986,3.60441-5.26534,7.02949-5.51094,3.56094-.25534,4.18891.46205,2.68914,3.21296-.5924,1.08658-1.44124,2.02245-2.93796,2.92881Z"/>
    <path class="cls-6" d="m190.25519,96.48841c-1.41911.71024-3.22325,1.3462-5.29233,1.07436-1.36323-.17911-1.65873-.55406-1.48833-1.70519.40852-2.75986,3.60441-5.26534,7.02949-5.51094,3.56094-.25534,4.18891.46205,2.68914,3.21296-.5924,1.08658-1.44124,2.02245-2.93796,2.92881Z"/>
    <path class="cls-6" d="m83.41006,95.73935c1.7816,3.28237,4.51566,6.8854,9.41035,8.88016,3.22491,1.31426,4.51455.88159,6.17334-1.78791,3.97704-6.40014,1.55668-15.72632-5.32365-20.51334-7.15323-4.97692-9.75428-4.22697-11.386,3.51221-.6445,3.0569-.47674,6.11123,1.12595,9.90889Z"/>
    <path class="cls-6" d="m62.50528,105.94376c2.80181,1.45914,6.49597,2.68482,11.22819,1.73021,3.11786-.62895,3.9601-1.55768,4.15126-4.24555.45836-6.44422-5.40298-11.86612-12.89223-11.92573-7.78632-.06199-9.53681,1.72444-7.56588,7.9821.77851,2.47171,2.20146,4.54924,5.07865,6.45897Z"/>
    <path class="cls-6" d="m92.09259,75.88253c1.54922,2.85424,3.92666,5.98731,8.18293,7.72188,2.80427,1.14284,3.9257.7666,5.36813-1.5547,3.4583-5.56535,1.35363-13.67508-4.62926-17.83771-6.22021-4.32776-8.48199-3.67563-9.90088,3.0541-.56043,2.65818-.41456,5.31412.97908,8.61643Z"/>
    <path class="cls-6" d="m63.59126,83.76574c2.11955,2.58159,5.11256,5.31553,9.66413,6.39552,2.99883.71156,4.02457.17575,4.96135-2.32237,2.24599-5.98928-1.51469-13.66311-8.27174-16.87893-7.02507-3.34339-9.11606-2.36777-9.11176,4.46709.00172,2.6997.69835,5.29303,2.75802,8.3387Z"/>
    <path class="cls-6" d="m71.68439,66.00229c1.81427,2.74139,4.48051,5.70524,8.88733,7.14915,2.90347.95133,3.98575.50116,5.20405-1.90942,2.92093-5.77938.05589-13.72238-6.30174-17.47096-6.60981-3.89729-8.80273-3.0957-9.58059,3.70774-.30723,2.68729.08939,5.32503,1.79096,8.52349Z"/>
    <path class="cls-6" d="m92.7239,51.1386c1.40557,2.90644,3.62472,6.1207,7.79077,8.00404,2.74483,1.24085,3.88402.90455,5.44091-1.36377,3.7327-5.43833,2.03417-13.61524-3.73594-17.98548-5.99898-4.5436-8.29128-3.97191-10.04442,2.70179-.69245,2.63605-.67911,5.2948.54868,8.64342Z"/>
    <path class="cls-6" d="m51.76942,88.48967c2.11791.6169,4.72352,1.04626,7.38574.20761,1.75402-.55255,2.02479-1.11919,1.42341-2.61026-1.44179-3.57487-6.50643-6.16865-11.13989-5.70515-4.81725.48188-5.41849,1.58046-2.52885,4.89174,1.14139,1.30792,2.57463,2.35632,4.85959,3.21606Z"/>
    <path class="cls-6" d="m60.36617,64.6417c1.3218.83268,3.03581,1.62582,5.12745,1.53985,1.3781-.05664,1.7191-.40316,1.69446-1.563-.05907-2.78074-2.92186-5.5569-6.2968-6.10628-3.50882-.57118-4.22348.08623-3.07816,2.95531.4524,1.13326,1.17875,2.1395,2.55306,3.17412Z"/>
    <path class="cls-6" d="m50.51488,76.20933c1.3218.83268,3.03581,1.62582,5.12745,1.53985,1.3781-.05664,1.7191-.40316,1.69446-1.563-.05907-2.78074-2.92186-5.5569-6.2968-6.10628-3.50882-.57118-4.22348.08623-3.07816,2.95531.4524,1.13326,1.17875,2.1395,2.55306,3.17412Z"/>
    <path class="cls-6" d="m64.16618,115.57818c1.64059-.15626,3.53455-.56757,4.98748-1.83684.95728-.83627.92335-1.28529-.03922-2.11557-2.30778-1.99061-6.65323-2.36043-9.55801-.81344-3.02001,1.60835-3.00494,2.49931.16569,3.92759,1.25237.56415,2.60077.87777,4.44406.83826Z"/>
    <path class="cls-6" d="m78.19671,46.41275c.9986,1.68863,2.5014,3.53082,5.09968,4.50119,1.71189.63933,2.37666.39441,3.18801-1.02445,1.94526-3.40173.48797-8.23832-3.20535-10.6383-3.83982-2.49518-5.18311-2.0653-5.87547,2.0016-.27347,1.60639-.12266,3.19952.79313,5.15996Z"/>
    <path class="cls-6" d="m103.00076,35.3035c.79412,1.21829,1.96475,2.53714,3.91129,3.1871,1.28249.42823,1.76327.23148,2.31092-.83305,1.31301-2.55222.0712-6.07641-2.7314-7.7516-2.91376-1.74165-3.88755-1.39194-4.25503,1.61889-.14514,1.18925.02156,2.35824.76422,3.77867Z"/>
    <path class="cls-6" d="m51.75105,107.37615c1.41911.71024,3.22325,1.3462,5.29233,1.07436,1.36323-.17911,1.65873-.55406,1.48833-1.70519-.40852-2.75986-3.60441-5.26534-7.02949-5.51094-3.56094-.25534-4.18891.46205-2.68914,3.21296.5924,1.08658,1.44124,2.02245,2.93796,2.92881Z"/>
    <path class="cls-6" d="m47.19939,96.48841c1.41911.71024,3.22325,1.3462,5.29233,1.07436,1.36323-.17911,1.65873-.55406,1.48833-1.70519-.40852-2.75986-3.60441-5.26534-7.02949-5.51094-3.56094-.25534-4.18891.46205-2.68914,3.21296.5924,1.08658,1.44124,2.02245,2.93796,2.92881Z"/>
  </g>
</svg>